/* XPM */
static char * bypass_xpm[] = {
"24 24 348 2",
"  	c None",
". 	c #F0F0F0",
"+ 	c #EAEAEB",
"@ 	c #C0C1C2",
"# 	c #545555",
"$ 	c #AAAAAC",
"% 	c #DFDFE0",
"& 	c #F2F2F2",
"* 	c #E9EAEB",
"= 	c #D3D4D5",
"- 	c #8B8C8D",
"; 	c #515252",
"> 	c #5F6062",
", 	c #B8B9BB",
"' 	c #E2E2E3",
") 	c #F6F6F7",
"! 	c #ECEDED",
"~ 	c #E5E6E6",
"{ 	c #E3E3E3",
"] 	c #D3D3D4",
"^ 	c #A7A7A7",
"/ 	c #636464",
"( 	c #303030",
"_ 	c #919395",
": 	c #A9AAAB",
"< 	c #CECECF",
"[ 	c #CCCCCE",
"} 	c #C5C6C7",
"| 	c #C4C5C6",
"1 	c #C3C4C5",
"2 	c #C3C4C6",
"3 	c #BABABC",
"4 	c #9E9FA0",
"5 	c #797A7C",
"6 	c #797A7D",
"7 	c #A2A5A7",
"8 	c #B2B4B5",
"9 	c #C6C7C8",
"0 	c #B2B3B5",
"a 	c #9C9D9F",
"b 	c #818184",
"c 	c #7B7B7E",
"d 	c #868789",
"e 	c #A6A7A9",
"f 	c #B7B8BA",
"g 	c #A0A2A4",
"h 	c #8B8D8F",
"i 	c #A4A7A9",
"j 	c #BCBEC0",
"k 	c #CBCCCD",
"l 	c #B5B6B8",
"m 	c #565657",
"n 	c #3F3D3F",
"o 	c #3E3C3D",
"p 	c #3D3B3C",
"q 	c #3C393A",
"r 	c #3A3738",
"s 	c #3B383A",
"t 	c #656466",
"u 	c #969799",
"v 	c #BFC0C2",
"w 	c #CACBCD",
"x 	c #A8AAAB",
"y 	c #949597",
"z 	c #B8BABC",
"A 	c #CECFD0",
"B 	c #ADAEB0",
"C 	c #676668",
"D 	c #424042",
"E 	c #444344",
"F 	c #474546",
"G 	c #484648",
"H 	c #474647",
"I 	c #454445",
"J 	c #3F3C3E",
"K 	c #393637",
"L 	c #383637",
"M 	c #7D7E7F",
"N 	c #BDBEBF",
"O 	c #A9ABAC",
"P 	c #ADB0B2",
"Q 	c #B7B8B9",
"R 	c #646365",
"S 	c #464446",
"T 	c #4B4A4B",
"U 	c #4F4D4F",
"V 	c #525153",
"W 	c #666567",
"X 	c #949495",
"Y 	c #878788",
"Z 	c #565557",
"` 	c #434142",
" .	c #3C3A3B",
"..	c #373435",
"+.	c #7E7F80",
"@.	c #C7C8C9",
"#.	c #CDCECF",
"$.	c #9FA0A1",
"%.	c #C8C9CA",
"&.	c #828284",
"*.	c #4A484A",
"=.	c #504F50",
"-.	c #555456",
";.	c #5B5B5C",
">.	c #A8A9AB",
",.	c #E3E3E5",
"'.	c #ECEDEE",
").	c #E6E7E9",
"!.	c #C6C7C9",
"~.	c #777779",
"{.	c #454345",
"].	c #A2A3A5",
"^.	c #D7D7D8",
"/.	c #B5B6B7",
"(.	c #AAADAF",
"_.	c #DCDDDD",
":.	c #BBBDBE",
"<.	c #525152",
"[.	c #535254",
"}.	c #5A595B",
"|.	c #5D5D5F",
"1.	c #848688",
"2.	c #DDDDDF",
"3.	c #E3E4E6",
"4.	c #DCDDDF",
"5.	c #C4C6C7",
"6.	c #949698",
"7.	c #5B5B5D",
"8.	c #4E4C4E",
"9.	c #464445",
"0.	c #3D3A3C",
"a.	c #6F6F70",
"b.	c #CFD0D1",
"c.	c #C3C5C6",
"d.	c #E0E1E2",
"e.	c #A2A2A3",
"f.	c #5C5C5E",
"g.	c #636365",
"h.	c #636466",
"i.	c #828486",
"j.	c #A3A5A7",
"k.	c #BABBBD",
"l.	c #C2C3C5",
"m.	c #B9BABC",
"n.	c #868082",
"o.	c #965253",
"p.	c #AE5B5B",
"q.	c #B26261",
"r.	c #9E4544",
"s.	c #6A4242",
"t.	c #C9C9CA",
"u.	c #D7D8D9",
"v.	c #E2E3E3",
"w.	c #A0A1A2",
"x.	c #5E5E5F",
"y.	c #656668",
"z.	c #6C6D6F",
"A.	c #6A6B6D",
"B.	c #6D6E70",
"C.	c #888A8C",
"D.	c #9B9D9F",
"E.	c #9B9B9D",
"F.	c #A67A7A",
"G.	c #E58784",
"H.	c #FCA4A2",
"I.	c #FEA3A0",
"J.	c #FEA6A3",
"K.	c #F39694",
"L.	c #D69796",
"M.	c #E1DBDB",
"N.	c #DCDDDE",
"O.	c #E8E8E9",
"P.	c #A8A9AA",
"Q.	c #69696B",
"R.	c #6F7072",
"S.	c #757779",
"T.	c #747677",
"U.	c #5C5B5D",
"V.	c #7D7F81",
"W.	c #838486",
"X.	c #AB6D6D",
"Y.	c #F67874",
"Z.	c #FE736F",
"`.	c #EA7973",
" +	c #CA6B67",
".+	c #C56C69",
"++	c #D6726D",
"@+	c #FC7976",
"#+	c #FE7875",
"$+	c #DE7F7D",
"%+	c #F0F0F1",
"&+	c #BEBEBF",
"*+	c #7B7C7E",
"=+	c #7E8082",
"-+	c #838587",
";+	c #707173",
">+	c #5F5F61",
",+	c #7D5959",
"'+	c #F15451",
")+	c #FE3E3A",
"!+	c #C44F49",
"~+	c #775555",
"{+	c #6E6667",
"]+	c #686465",
"^+	c #944D4B",
"/+	c #F3918C",
"(+	c #FF433F",
"_+	c #FE4743",
":+	c #CC423F",
"<+	c #F4F4F4",
"[+	c #E4E5E6",
"}+	c #8E8F90",
"|+	c #898B8D",
"1+	c #8C8E90",
"2+	c #8F9092",
"3+	c #808183",
"4+	c #BC423F",
"5+	c #E91311",
"6+	c #D4433D",
"7+	c #847071",
"8+	c #808284",
"9+	c #7A7B7D",
"0+	c #966767",
"a+	c #E1594D",
"b+	c #EB2E20",
"c+	c #E6726E",
"d+	c #EA1B17",
"e+	c #E62E2B",
"f+	c #EEEEEF",
"g+	c #F7F7F7",
"h+	c #CACBCC",
"i+	c #97999B",
"j+	c #9B9C9E",
"k+	c #9D9EA0",
"l+	c #9C999A",
"m+	c #BD2927",
"n+	c #A40907",
"o+	c #A36361",
"p+	c #8A8C8E",
"q+	c #987677",
"r+	c #D24234",
"s+	c #CD220A",
"t+	c #BE473D",
"u+	c #C2B2B1",
"v+	c #9B2721",
"w+	c #B80A08",
"x+	c #99130D",
"y+	c #FDFDFD",
"z+	c #F6F7F7",
"A+	c #A3A5A6",
"B+	c #A4A6A8",
"C+	c #A9AAAC",
"D+	c #A2989A",
"E+	c #AD2B29",
"F+	c #96120F",
"G+	c #9B7C7C",
"H+	c #9A9C9D",
"I+	c #948182",
"J+	c #BC3629",
"K+	c #BB1D03",
"L+	c #B2382C",
"M+	c #D0C7C6",
"N+	c #F3F3F3",
"O+	c #7E2E27",
"P+	c #920402",
"Q+	c #AF1B18",
"R+	c #FEFEFE",
"S+	c #FAFAFA",
"T+	c #DADADB",
"U+	c #B8B9BA",
"V+	c #B4B5B7",
"W+	c #B3B5B7",
"X+	c #ADA5A6",
"Y+	c #A32B27",
"Z+	c #660C08",
"`+	c #9F8383",
" @	c #9C9496",
".@	c #A23930",
"+@	c #AD1A01",
"@@	c #B13024",
"#@	c #D1C5C4",
"$@	c #FBFBFB",
"%@	c #65231B",
"&@	c #750502",
"*@	c #971B16",
"=@	c #E1E1E1",
"-@	c #FFFFFF",
";@	c #E1E1E2",
">@	c #CFD0D2",
",@	c #C3C2C3",
"'@	c #A7322F",
")@	c #7B0602",
"!@	c #A37472",
"~@	c #963D35",
"{@	c #A71B03",
"]@	c #B62E22",
"^@	c #D9C5C3",
"/@	c #F9F9F9",
"(@	c #C6C6C6",
"_@	c #80423C",
":@	c #A1130F",
"<@	c #CACACA",
"[@	c #FCFCFC",
"}@	c #BE9392",
"|@	c #B41713",
"1@	c #A6352F",
"2@	c #B01E08",
"3@	c #CA352A",
"4@	c #E8C8C7",
"5@	c #EBEBEB",
"6@	c #B0AFAF",
"7@	c #985650",
"8@	c #9D140F",
"9@	c #AD1C16",
"0@	c #A1A1A1",
"a@	c #D4D4D4",
"b@	c #E7E2E1",
"c@	c #C0413C",
"d@	c #C30A04",
"e@	c #C33029",
"f@	c #D88B87",
"g@	c #C1A3A2",
"h@	c #9D6B6A",
"i@	c #AF605D",
"j@	c #BC5C56",
"k@	c #C22D29",
"l@	c #CA1A15",
"m@	c #80150E",
"n@	c #A6A6A6",
"o@	c #BCBCBC",
"p@	c #C8C8C8",
"q@	c #998483",
"r@	c #C8342E",
"s@	c #E51913",
"t@	c #EE110A",
"u@	c #FA3229",
"v@	c #FB4139",
"w@	c #F92F29",
"x@	c #E8140E",
"y@	c #DC211C",
"z@	c #951E17",
"A@	c #A73832",
"B@	c #D53934",
"C@	c #EF655F",
"D@	c #F3756F",
"E@	c #E14C46",
"F@	c #C03831",
"G@	c #78120B",
"                    . + @ #                     ",
"                $ % & * = - ; >                 ",
"              , ' ) ! ~ { ] ^ / (               ",
"          _ : < [ } | 1 2 | | 3 4 5 6           ",
"        7 8 9 1 0 a b 6 c d e f 9 @ g h         ",
"      i j k l d m n o p q r s t u v w x y       ",
"    7 z A B C D E F G H I D J K L M N A O       ",
"    P = Q R S T U V W X Y Z G `  ...+.@.#.$.    ",
"    %.#.&.*.=.-.;.>.,.'.).!.~.T {.p r ].^./.    ",
"  (._.:.<.[.}.|.1.v 2.3.4.5.6.7.8.9.0.a.b.#.    ",
"  c.d.e.Z f.g.h.i.j.k.l.m.].n.o.p.q.r.s.t.d.    ",
"  u.v.w.x.y.z.A.B.C.D.].E.F.G.H.I.I.J.K.L.M.    ",
"  N.O.P.Q.R.S.T.U.B.V.W.X.Y.Z.`. +.+++@+#+$+    ",
"    %+&+*+5 =+-+;+-.>+,+'+)+!+~+{+]+^+/+(+_+:+  ",
"    <+[+}+-+|+1+2+3+C 4+5+6+7+8+9+0+a+b+c+d+e+  ",
"    f+g+h+6._ i+j+k+l+m+n+o+2+p+q+r+s+t+u+v+w+x+",
"      y+z+1 A+].B+C+D+E+F+G+H+I+J+K+L+M+N+O+P+Q+",
"      ~ R+S+T+U+V+W+X+Y+Z+`+ @.@+@@@#@$@  %@&@*@",
"        =@R+-@z+;@>@,@'@)@!@~@{@]@^@/@(@  _@:@  ",
"          <@g+-@-@R+[@}@|@1@2@3@4@5@6@  7@8@9@  ",
"            0@a@. y+R+b@c@d@e@f@g@h@i@j@k@l@m@  ",
"                  n@o@p@q@r@s@t@u@v@w@x@y@z@    ",
"                            A@B@C@D@E@F@G@      ",
"                                                "};
