/* XPM */
static char * editor_xpm[] = {
"24 24 49 1",
" 	c None",
".	c #F0F0F1",
"+	c #E1E1E2",
"@	c #E8E8E9",
"#	c #F2F2F3",
"$	c #E5E5E6",
"%	c #E0E0E2",
"&	c #DBDBDD",
"*	c #D9D9DA",
"=	c #D5D5D5",
"-	c #D5D5D6",
";	c #D7D7D9",
">	c #D4D4D4",
",	c #CDCDCE",
"'	c #D0D0D2",
")	c #AFAFB0",
"!	c #CFCFD0",
"~	c #D1D1D1",
"{	c #D0D0D0",
"]	c #CBCBCB",
"^	c #CECECF",
"/	c #D7D7D7",
"(	c #E0E0E0",
"_	c #DFDFDF",
":	c #D2D2D4",
"<	c #C9C9CA",
"[	c #E9E9EA",
"}	c #E8E8EA",
"|	c #CCCCCE",
"1	c #CBCBCD",
"2	c #C7C7C7",
"3	c #DFDFE1",
"4	c #F5F5F5",
"5	c #E4E4E5",
"6	c #E7E7E8",
"7	c #E6E6E7",
"8	c #D2D2D3",
"9	c #DADADC",
"0	c #D5D5D7",
"a	c #FFFFFF",
"b	c #FEFEFE",
"c	c #DEDEDE",
"d	c #D6D6D8",
"e	c #D4D4D6",
"f	c #DDDDDD",
"g	c #CDCDCF",
"h	c #F3F3F3",
"i	c #E1E1E1",
"j	c #D9D9D9",
"                        ",
" ...................    ",
" +@#$%%%%%$#@$#@$#@+    ",
" &*=-;;;;;->-->-->-;,   ",
" ;')!~~~~~{]^{]^{]^~/(_ ",
" :'<[[[}}}}}}}[[}[[}[[[ ",
" |123[453333354[54[54[3 ",
" 67898]0999990]80]80]89 ",
" abcde^0000000^e0^e0^ed ",
" abf''''''''''''''''''' ",
" abf,|||||||||||||||||g ",
" ab(hhhhhhhhhhhhhhhhhhh ",
" abibaaaaaaaaaaaaaaaaaa ",
" abibaaaaaaaaaaaaaaaaaa ",
" abibaaaaaaaaaaaaaaaaaa ",
" abibaaaaaaaaaaaaaaaaaa ",
" abibaaaaaaaaaaaaaaaaaa ",
" abibaaaaaaaaaaaaaaaaaa ",
" abibaaaaaaaaaaaaaaaaaa ",
" (_>baaaaaaaaaaaaaaaaaa ",
"   jaaaaaaaaaaaaaaaaaaa ",
"    aaaaaaaaaaaaaaaaaaa ",
"    bbbbbbbbbbbbbbbbbbb ",
"                        "};
