/* XPM */
static char * sysex_xpm[] = {
"24 24 228 2",
"  	c None",
". 	c #393939",
"+ 	c #3B3B3B",
"@ 	c #5B5B5B",
"# 	c #B1B1B1",
"$ 	c #D0D0D0",
"% 	c #444444",
"& 	c #373737",
"* 	c #4A4A4A",
"= 	c #A5A5A5",
"- 	c #D8D8D8",
"; 	c #F6F6F6",
"> 	c #F3F3F3",
", 	c #A3A3A3",
"' 	c #353535",
") 	c #919191",
"! 	c #CBCBCB",
"~ 	c #F5F5F5",
"{ 	c #DDDDDD",
"] 	c #DCDCDC",
"^ 	c #EBEBEB",
"/ 	c #EDEDED",
"( 	c #DADADA",
"_ 	c #3E3E3E",
": 	c #7A7A7A",
"< 	c #C2C2C2",
"[ 	c #EFEFEF",
"} 	c #E3E3E3",
"| 	c #B0B0B0",
"1 	c #A9A9A9",
"2 	c #C0C0C0",
"3 	c #ACACAC",
"4 	c #ECECEC",
"5 	c #686868",
"6 	c #929292",
"7 	c #E7E7E7",
"8 	c #E0E0E0",
"9 	c #E1E1E1",
"0 	c #818181",
"a 	c #999999",
"b 	c #AEAEAE",
"c 	c #E8E8E8",
"d 	c #989898",
"e 	c #9B9B9B",
"f 	c #EEEEEE",
"g 	c #F2F2F2",
"h 	c #BCBCBC",
"i 	c #343434",
"j 	c #9E9E9E",
"k 	c #A4A4A4",
"l 	c #B5B5B5",
"m 	c #696969",
"n 	c #AAAAAA",
"o 	c #C7C7C7",
"p 	c #434343",
"q 	c #484848",
"r 	c #F1F1F1",
"s 	c #CECECE",
"t 	c #939393",
"u 	c #DEDEDE",
"v 	c #F0F0F0",
"w 	c #C4C4C4",
"x 	c #C8C8C8",
"y 	c #D7D7D7",
"z 	c #CFCFCF",
"A 	c #383838",
"B 	c #7B7B7B",
"C 	c #F7F7F7",
"D 	c #CCCCCC",
"E 	c #9A9A9A",
"F 	c #606060",
"G 	c #424243",
"H 	c #3D3E3E",
"I 	c #3D3D3D",
"J 	c #E4E4E4",
"K 	c #EAEAEA",
"L 	c #8E8E8E",
"M 	c #8A8C8D",
"N 	c #C9CDCE",
"O 	c #E5ECED",
"P 	c #E9F0F1",
"Q 	c #DEE4E5",
"R 	c #B6BABB",
"S 	c #565859",
"T 	c #9B9C9D",
"U 	c #C1C3C3",
"V 	c #D4D5D6",
"W 	c #F4F4F4",
"X 	c #888888",
"Y 	c #B0B4B5",
"Z 	c #E7EEF0",
"` 	c #DBE5E7",
" .	c #D9E2E5",
"..	c #C7C8D5",
"+.	c #E0E8EA",
"@.	c #E6EEEF",
"#.	c #DEE4E6",
"$.	c #747778",
"%.	c #393B3C",
"&.	c #535E61",
"*.	c #70787A",
"=.	c #F7F8F8",
"-.	c #C1C1C1",
";.	c #939797",
">.	c #C9CED7",
",.	c #A69FB7",
"'.	c #9D88AE",
").	c #A999B7",
"!.	c #D0CBD8",
"~.	c #E8F0F1",
"{.	c #D4DBDC",
"].	c #404142",
"^.	c #333333",
"/.	c #485154",
"(.	c #505A5D",
"_.	c #D7D8D9",
":.	c #808080",
"<.	c #D3D9DA",
"[.	c #DFE8EA",
"}.	c #BEBCCC",
"|.	c #BDB2C7",
"1.	c #E7EDEF",
"2.	c #E3EAEC",
"3.	c #9C85B0",
"4.	c #EEF1F4",
"5.	c #ECF2F4",
"6.	c #E6EDEF",
"7.	c #878C8C",
"8.	c #3C4143",
"9.	c #475256",
"0.	c #9EA1A3",
"a.	c #F8F8F8",
"b.	c #505151",
"c.	c #E2EAEC",
"d.	c #E2E9EB",
"e.	c #9881AB",
"f.	c #EDF1F3",
"g.	c #E9EFF2",
"h.	c #A593BA",
"i.	c #CDC3D7",
"j.	c #F0F6F7",
"k.	c #A1A7A8",
"l.	c #333434",
"m.	c #414C4F",
"n.	c #4D5659",
"o.	c #565656",
"p.	c #DCDFE6",
"q.	c #947CAB",
"r.	c #CBC1D5",
"s.	c #E5E8EE",
"t.	c #8250A1",
"u.	c #B7A3C7",
"v.	c #F6FAFB",
"w.	c #E3EBED",
"x.	c #9FA6A7",
"y.	c #323232",
"z.	c #394042",
"A.	c #3C474B",
"B.	c #BFC1C1",
"C.	c #C1C7C8",
"D.	c #E8EFF1",
"E.	c #BDB6CD",
"F.	c #773B99",
"G.	c #B8A5C7",
"H.	c #F4F8F9",
"I.	c #D6D1E2",
"J.	c #EEEDF3",
"K.	c #F1F7F8",
"L.	c #D9E3E5",
"M.	c #798081",
"N.	c #323333",
"O.	c #343638",
"P.	c #364145",
"Q.	c #6F7476",
"R.	c #FAFAFA",
"S.	c #8B9092",
"T.	c #E0E7E9",
"U.	c #E1E5EB",
"V.	c #C6BED5",
"W.	c #EBEAF1",
"X.	c #F6FBFC",
"Y.	c #DCE5E8",
"Z.	c #B3BDBF",
"`.	c #5E6364",
" +	c #323B3E",
".+	c #374144",
"++	c #DCDDDD",
"@+	c #F9F9F9",
"#+	c #565757",
"$+	c #B4BBBD",
"%+	c #D7E0E2",
"&+	c #E1E9EB",
"*+	c #E7EFF0",
"=+	c #E0E8EB",
"-+	c #D6E0E2",
";+	c #B1BBBD",
">+	c #828A8C",
",+	c #383939",
"'+	c #303536",
")+	c #41484A",
"!+	c #E0E1E1",
"~+	c #FBFBFB",
"{+	c #66696A",
"]+	c #AAB2B4",
"^+	c #BDC6C8",
"/+	c #C4CDD0",
"(+	c #C1CACC",
"_+	c #B1BABD",
":+	c #929B9D",
"<+	c #848D8E",
"[+	c #4F5354",
"}+	c #D6D6D7",
"|+	c #FDFDFD",
"1+	c #BFBFBF",
"2+	c #777777",
"3+	c #3C3C3C",
"4+	c #545757",
"5+	c #8C9293",
"6+	c #A6ADAF",
"7+	c #A1A9AB",
"8+	c #868E90",
"9+	c #6C7374",
"0+	c #424444",
"a+	c #363636",
"b+	c #848484",
"c+	c #414141",
"d+	c #343535",
"e+	c #393A3A",
"                                                ",
"                          .                     ",
"                    + @ # $ %                   ",
"              & * = - ; > ; ,                   ",
"        ' % ) ! ~ > { ] ^ / ( +                 ",
"    _ : < [ > } | 1 2 3 4 / ; 5                 ",
"  6 7 ~ 8 9 0 a b c d e ^ f g h i               ",
"  j ~ ^ k l m n n a o f f [ [ / p               ",
"  q r 4 s t | ! u [ f [ [ v v ; t               ",
"  ' w v x y / f [ [ [ v v r r g z A             ",
"    B C f [ [ [ v v v r r v D E F G H '         ",
"    I J v [ v v r r r g K L M N O P Q R S       ",
"      T U V W r g g g [ X Y Z `  ...+.@.#.$.    ",
"      %.&.*.=.g g > > -.;.Z >.,.'.).!.@.~.{.].  ",
"      ^./.(._.W > W > :.<.[.}.|.1.2.3.4.5.6.7.  ",
"        8.9.0.a.W ~ > b.Z c.d.e.f.g.h.i.j.~.k.  ",
"        l.m.n.v ~ ; W o.d.@.p.q.r.s.t.u.v.w.x.^.",
"        y.z.A.B.a.C ; d C.D.E.F.G.H.I.J.K.L.M.N.",
"          O.P.Q.R.a.a.2 S.T.U.V.W.X.X.j.Y.Z.`.  ",
"          y. +.+++@+@+[ #+$+%+&+*+Z =+-+;+>+,+  ",
"            '+)+!+R.~+~+| {+]+^+/+(+_+:+<+[+    ",
"            ,+}+|+f 1+2+3+^.4+5+6+7+8+9+0+      ",
"            a+d b+c+i         d+,+e+a+^.        ",
"                                                "};
