/* XPM */
static char * bypass_xpm[] = {
"24 24 302 2",
"  	c None",
". 	c #2A2A2A",
"+ 	c #4F6781",
"@ 	c #59728B",
"# 	c #637C96",
"$ 	c #6C859F",
"% 	c #748DA7",
"& 	c #7992AC",
"* 	c #7A93AD",
"= 	c #7790AA",
"- 	c #708AA4",
"; 	c #68809A",
"> 	c #5E7791",
", 	c #546C86",
"' 	c #768FAA",
") 	c #7E98B2",
"! 	c #87A0BA",
"~ 	c #8FA9C3",
"{ 	c #97B1CB",
"] 	c #9EB8D2",
"^ 	c #A4BED8",
"/ 	c #A9C3DD",
"( 	c #ABC5DE",
"_ 	c #A6C1DB",
": 	c #A1BBD5",
"< 	c #9AB4CF",
"[ 	c #93ADC7",
"} 	c #8BA4BE",
"| 	c #829CB7",
"1 	c #7993AE",
"2 	c #6582A0",
"3 	c #6D8BA8",
"4 	c #7694B2",
"5 	c #7F9CBB",
"6 	c #88A5C2",
"7 	c #000000",
"8 	c #1C2126",
"9 	c #1F2226",
"0 	c #1F2326",
"a 	c #1D2126",
"b 	c #050607",
"c 	c #8BA9C6",
"d 	c #83A0BF",
"e 	c #7B98B6",
"f 	c #728FAD",
"g 	c #6986A5",
"h 	c #627F9D",
"i 	c #6A87A5",
"j 	c #7390AE",
"k 	c #191E22",
"l 	c #AEBAC7",
"m 	c #C1C2C3",
"n 	c #B5B6B6",
"o 	c #BBBBBB",
"p 	c #D5D5D6",
"q 	c #C6D1DC",
"r 	c #1A1F24",
"s 	c #7F9CBA",
"t 	c #7794B2",
"u 	c #6E8CAA",
"v 	c #6683A2",
"w 	c #5F7C9B",
"x 	c #6683A1",
"y 	c #6E8BA9",
"z 	c #161B20",
"A 	c #B8BEC5",
"B 	c #A8A9A9",
"C 	c #505050",
"D 	c #222222",
"E 	c #242424",
"F 	c #595959",
"G 	c #C6C6C6",
"H 	c #E2E6EC",
"I 	c #171C21",
"J 	c #63809F",
"K 	c #5C7897",
"L 	c #617E9C",
"M 	c #030405",
"N 	c #98A7B8",
"O 	c #B8B9B9",
"P 	c #353535",
"Q 	c #272727",
"R 	c #363636",
"S 	c #393939",
"T 	c #2F2F2F",
"U 	c #3D3D3D",
"V 	c #DDDDDD",
"W 	c #B0BECD",
"X 	c #040505",
"Y 	c #6581A0",
"Z 	c #5F7C9A",
"` 	c #577492",
" .	c #5C7997",
"..	c #12171C",
"+.	c #B8BFC7",
"@.	c #8A8A8A",
"#.	c #1D1D1D",
"$.	c #3B3B3B",
"%.	c #4D4D4D",
"&.	c #454545",
"*.	c #969596",
"=.	c #C9D0D7",
"-.	c #13181D",
";.	c #5C7896",
">.	c #526F8D",
",.	c #567290",
"'.	c #11161B",
").	c #C9CED4",
"!.	c #7D7D7D",
"~.	c #1F1F1F",
"{.	c #343434",
"].	c #414141",
"^.	c #636363",
"/.	c #444444",
"(.	c #323233",
"_.	c #787878",
":.	c #C2C5CA",
"<.	c #14191E",
"[.	c #57728F",
"}.	c #58728C",
"|.	c #2D2D2D",
"1.	c #4E6A87",
"2.	c #506C8A",
"3.	c #10151A",
"4.	c #C4CAD2",
"5.	c #A2A2A2",
"6.	c #161616",
"7.	c #2C2C2C",
"8.	c #333333",
"9.	c #472323",
"0.	c #2C2D2E",
"a.	c #486583",
"b.	c #4B6684",
"c.	c #030305",
"d.	c #97A3B4",
"e.	c #E4E5E5",
"f.	c #4F4F4F",
"g.	c #DE8481",
"h.	c #FCA4A2",
"i.	c #F89693",
"j.	c #E46E6C",
"k.	c #EE8582",
"l.	c #D86463",
"m.	c #A61312",
"n.	c #445F7E",
"o.	c #44607E",
"p.	c #486381",
"q.	c #0E1318",
"r.	c #CED3D9",
"s.	c #D2D2D3",
"t.	c #727272",
"u.	c #262626",
"v.	c #D7514E",
"w.	c #C31B19",
"x.	c #C11E1B",
"y.	c #BB1C19",
"z.	c #BA1C1A",
"A.	c #BD1D1A",
"B.	c #FC7976",
"C.	c #E4524F",
"D.	c #BF1F1D",
"E.	c #3F5B79",
"F.	c #3F5B78",
"G.	c #425D7A",
"H.	c #45607D",
"I.	c #030304",
"J.	c #A2ABB6",
"K.	c #D0D1D3",
"L.	c #D93F3D",
"M.	c #BF0F0D",
"N.	c #BB2B27",
"O.	c #C32220",
"P.	c #F93E3A",
"Q.	c #DB2B27",
"R.	c #B70F0D",
"S.	c #3C5674",
"T.	c #3B5672",
"U.	c #3C5773",
"V.	c #3F5A76",
"W.	c #425D79",
"X.	c #070707",
"Y.	c #B91513",
"Z.	c #C10C0A",
"`.	c #C0221F",
" +	c #342827",
".+	c #0C1116",
"++	c #405B77",
"@+	c #E1594D",
"#+	c #EB2E20",
"$+	c #A31210",
"%+	c #D61411",
"&+	c #BA0E0B",
"*+	c #395370",
"=+	c #37506D",
"-+	c #38516E",
";+	c #395470",
">+	c #14171A",
",+	c #BCBCBD",
"'+	c #B70B09",
")+	c #A80907",
"!+	c #352727",
"~+	c #E5E6E6",
"{+	c #8B96A4",
"]+	c #D24234",
"^+	c #CD220A",
"/+	c #A94945",
"(+	c #B70A08",
"_+	c #35506C",
":+	c #334D69",
"<+	c #344D69",
"[+	c #020303",
"}+	c #A7ACB3",
"|+	c #9A9A9B",
"1+	c #B0100E",
"2+	c #A50E0B",
"3+	c #3D2E2E",
"4+	c #ABABAB",
"5+	c #BC3629",
"6+	c #BB1D03",
"7+	c #B2382C",
"8+	c #9F100E",
"9+	c #B10907",
"0+	c #334D6A",
"a+	c #304965",
"b+	c #304A65",
"c+	c #090E13",
"d+	c #BCC1C6",
"e+	c #919191",
"f+	c #B00E0C",
"g+	c #8C0A08",
"h+	c #282727",
"i+	c #A23930",
"j+	c #AD1A01",
"k+	c #B13024",
"l+	c #344D6A",
"m+	c #212121",
"n+	c #B30B09",
"o+	c #A80806",
"p+	c #354E6C",
"q+	c #314A66",
"r+	c #304865",
"s+	c #090D12",
"t+	c #B1B6BD",
"u+	c #CACACA",
"v+	c #B5110F",
"w+	c #8D0704",
"x+	c #B31B18",
"y+	c #A71B03",
"z+	c #B62E22",
"A+	c #314A67",
"B+	c #28384A",
"C+	c #202020",
"D+	c #B20A08",
"E+	c #2C2A2A",
"F+	c #395371",
"G+	c #364F6D",
"H+	c #354E6B",
"I+	c #53667D",
"J+	c #DDDFE1",
"K+	c #AB1B19",
"L+	c #B41713",
"M+	c #B5120F",
"N+	c #B01E08",
"O+	c #A04343",
"P+	c #354C67",
"Q+	c #171717",
"R+	c #9B0F0E",
"S+	c #A50F0C",
"T+	c #AF1410",
"U+	c #3E5A79",
"V+	c #3D5877",
"W+	c #3C5676",
"X+	c #0B1015",
"Y+	c #111419",
"Z+	c #B4B8BF",
"`+	c #B91C1A",
" @	c #BA0A07",
".@	c #C33029",
"+@	c #860E0C",
"@@	c #B80A08",
"#@	c #B90F0C",
"$@	c #80150E",
"%@	c #435F7F",
"&@	c #425E7E",
"*@	c #425D7D",
"=@	c #020304",
"-@	c #C8342E",
";@	c #E51913",
">@	c #EE110A",
",@	c #FA3229",
"'@	c #FB4139",
")@	c #F92F29",
"!@	c #E8140E",
"~@	c #DC211C",
"{@	c #951E17",
"]@	c #A73832",
"^@	c #D53934",
"/@	c #EF655F",
"(@	c #F3756F",
"_@	c #E14C46",
":@	c #C03831",
"<@	c #78120B",
"            . . . . . . . . . . . .             ",
"          . + @ # $ % & * = - ; > , .           ",
"        . . . . . . . . . . . . . . . .         ",
"      . ' ) ! ~ { ] ^ / ( _ : < [ } | 1 .       ",
"      . 2 3 4 5 6 7 8 9 0 a b c d e f g .       ",
"      . h i j e k l m n o p q r s t u v .       ",
"      . w x y z A B C D E F G H I f i J .       ",
"      . K L M N O P Q R S T U V W X Y Z .       ",
"      . `  ...+.@.#.S $.%.&.. *.=.-.Z ;..       ",
"      . >.,.'.).!.~.{.].^./.(._.:.<.[.}.|.      ",
"      . 1.2.3.4.5.6.T 7.8.$.. . . . 9.0..       ",
"      . a.b.c.d.e.f.6.D E . g.h.i.j.k.l.m..     ",
"      . n.o.p.q.r.s.t.u.. v.w.x.y.z.A.B.C.D..   ",
"      . E.F.G.H.I.J.K.. L.M.N.. . . . O.P.Q.R.. ",
"      . S.T.U.V.W.X.. Y.Z.`. +.+++. @+#+$+%+&+. ",
"      . *+=+-+;+>+,+. '+)+!+~+{+. ]+^+/+. '+(+. ",
"      . _+:+<+[+}+|+. 1+2+3+4+. 5+6+7+. Q 8+9+. ",
"      . 0+a+b+c+d+e+. f+g+h+. i+j+k+. l+m+n+o+ +",
"      . p+q+r+s+t+u+. v+w+!+x+y+z+. A+B+C+n+D+E+",
"      . F+G+H+[+I+J+. K+L+M+N+O+. H+P+Q+R+S+T+. ",
"      . U+V+W+W+X+Y+Z+. `+ @.@. . . . +@@@#@$@. ",
"      . %@&@*@*@*@*@=@q.. -@;@>@,@'@)@!@~@{@.   ",
"        . . . . . . . . . . ]@^@/@(@_@:@<@.     ",
"                            . . . . . . .       "};
