/* XPM */
static char * editor_xpm[] = {
"24 24 34 1",
" 	c None",
".	c #00B1B3",
"+	c #E8E8E9",
"@	c #F2F2F3",
"#	c #E5E5E6",
"$	c #E0E0E2",
"%	c #D9D9DA",
"&	c #D5D5D6",
"*	c #D7D7D9",
"=	c #D0D0D2",
"-	c #AFAFB0",
";	c #2E2E2E",
">	c #C9C9CA",
",	c #E9E9EA",
"'	c #E8E8EA",
")	c #CBCBCD",
"!	c #C7C7C7",
"~	c #E4E4E5",
"{	c #DFDFE1",
"]	c #E6E6E7",
"^	c #D2D2D3",
"/	c #CBCBCB",
"(	c #D5D5D7",
"_	c #DADADC",
":	c #FEFEFE",
"<	c #DEDEDE",
"[	c #D4D4D6",
"}	c #CECECF",
"|	c #DDDDDD",
"1	c #CCCCCE",
"2	c #E0E0E0",
"3	c #F3F3F3",
"4	c #E1E1E1",
"5	c #FFFFFF",
"                        ",
" ...................    ",
" .+@#$$$$$#@+#@+#@+.    ",
" .%.&*****&.&&.&&.&.    ",
" .=-;;;;;;;;;;;;;;;;;;; ",
" .=>;,,''''''',,',,',,; ",
" .)!;,;~{{{{{~;,~;,~;,; ",
" .]^;^/(_____(/^(/^(/^; ",
" .:<;[}(((((((}[(}[(}[; ",
" .:|;=================; ",
" .:|;11111111111111111; ",
" .:2;33333333333333333; ",
" .:4;55555555555555555; ",
" .:4;55555555555555555; ",
" .:4;55555555555555555; ",
" .:4;55555555555555555; ",
" .:4;55555555555555555; ",
" .:4;55555555555555555; ",
" .:4;55555555555555555; ",
" ...;55555555555555555; ",
"    ;55555555555555555; ",
"    ;55555555555555555; ",
"    ;;;;;;;;;;;;;;;;;;; ",
"                        "};
