/* XPM */
static char * load_xpm[] = {
"24 24 207 2",
"  	c None",
". 	c #DCDCDC",
"+ 	c #DEDEDE",
"@ 	c #D0D0D0",
"# 	c #E5E5E5",
"$ 	c #F6F6F6",
"% 	c #F7F7F7",
"& 	c #F5F5F5",
"* 	c #EAEBEB",
"= 	c #F5F5F6",
"- 	c #E0E0E1",
"; 	c #D2D3D4",
"> 	c #D3D3D4",
", 	c #BFD2F0",
"' 	c #CBDBF4",
") 	c #B7D3F9",
"! 	c #C8DFF9",
"~ 	c #CEE2FA",
"{ 	c #CCDFF7",
"] 	c #B2C4D8",
"^ 	c #9DACBE",
"/ 	c #9CABBD",
"( 	c #B5C7DC",
"_ 	c #CDE1F9",
": 	c #ABCAF7",
"< 	c #C4DCF9",
"[ 	c #CBE0FA",
"} 	c #C9DEF8",
"| 	c #8D9CB0",
"1 	c #3C424D",
"2 	c #383D48",
"3 	c #383D47",
"4 	c #383C47",
"5 	c #373D48",
"6 	c #3E434F",
"7 	c #91A0B4",
"8 	c #CADEF8",
"9 	c #A4C5F6",
"0 	c #BFD8F8",
"a 	c #C6DCF9",
"b 	c #C7DCF9",
"c 	c #B1C4DF",
"d 	c #3D4350",
"e 	c #373C48",
"f 	c #373B48",
"g 	c #6F7B8D",
"h 	c #5D6978",
"i 	c #363C47",
"j 	c #3C424E",
"k 	c #AEC1DB",
"l 	c #9DC0F6",
"m 	c #BAD3F8",
"n 	c #C2D8F8",
"o 	c #99AAC4",
"p 	c #363B47",
"q 	c #353A47",
"r 	c #6F7C90",
"s 	c #BFD5F4",
"t 	c #B6CCEA",
"u 	c #5B6676",
"v 	c #363B46",
"w 	c #363B48",
"x 	c #363C48",
"y 	c #97A9C2",
"z 	c #BAD3F7",
"A 	c #B3CEF6",
"B 	c #BDD4F7",
"C 	c #93A5C1",
"D 	c #343A46",
"E 	c #343947",
"F 	c #343A47",
"G 	c #6E7C92",
"H 	c #B8CFF1",
"I 	c #BDD4F6",
"J 	c #BCD4F6",
"K 	c #AFC5E6",
"L 	c #5C687A",
"M 	c #353947",
"N 	c #353B47",
"O 	c #93A6C1",
"P 	c #ABC8F5",
"Q 	c #B7CFF5",
"R 	c #8EA1BF",
"S 	c #323946",
"T 	c #333847",
"U 	c #66748B",
"V 	c #B1C9EE",
"W 	c #B5CDF2",
"X 	c #B6CFF4",
"Y 	c #B3CBF0",
"Z 	c #B6CEF4",
"` 	c #AAC1E4",
" .	c #545F73",
"..	c #8EA2C0",
"+.	c #A3C1F4",
"@.	c #B0C9F3",
"#.	c #B1CAF4",
"$.	c #899DBE",
"%.	c #313745",
"&.	c #5A677F",
"*.	c #ABC3EC",
"=.	c #AEC6F0",
"-.	c #6D7D97",
";.	c #AEC7F1",
">.	c #9DB3D8",
",.	c #8396B5",
"'.	c #B0C8F2",
").	c #A4BBE3",
"!.	c #3B4455",
"~.	c #313946",
"{.	c #8A9DBF",
"].	c #9ABAF2",
"^.	c #AAC4F2",
"/.	c #8499BE",
"(.	c #2F3746",
"_.	c #7080A0",
":.	c #A7C1ED",
"<.	c #697995",
"[.	c #363E4E",
"}.	c #A8C2EF",
"|.	c #96ADD6",
"1.	c #363E4F",
"2.	c #7C8EB0",
"3.	c #A7C1EE",
"4.	c #3F495C",
"5.	c #8599BE",
"6.	c #91B2F0",
"7.	c #A3BEF0",
"8.	c #A4BFF0",
"9.	c #7F95BC",
"0.	c #303848",
"a.	c #6B7D9E",
"b.	c #637391",
"c.	c #323A4B",
"d.	c #363F52",
"e.	c #A1BCED",
"f.	c #90A8D4",
"g.	c #343C50",
"h.	c #333C4F",
"i.	c #7487AA",
"j.	c #3F495E",
"k.	c #2F3747",
"l.	c #89AAEF",
"m.	c #9DB8EE",
"n.	c #9DB9EF",
"o.	c #7B91BC",
"p.	c #343E52",
"q.	c #3A455B",
"r.	c #384157",
"s.	c #384257",
"t.	c #3C465D",
"u.	c #9BB6EC",
"v.	c #8BA4D4",
"w.	c #3A445B",
"x.	c #394358",
"y.	c #384258",
"z.	c #363F53",
"A.	c #81A2ED",
"B.	c #97B2ED",
"C.	c #97B3ED",
"D.	c #7B91C0",
"E.	c #3C4760",
"F.	c #465370",
"G.	c #475471",
"H.	c #495775",
"I.	c #96B1EA",
"J.	c #88A1D5",
"K.	c #485572",
"L.	c #465371",
"M.	c #3F4B65",
"N.	c #798FBE",
"O.	c #799BEC",
"P.	c #91AEEB",
"Q.	c #92AEEB",
"R.	c #89A4DE",
"S.	c #475475",
"T.	c #5B6D96",
"U.	c #5E719B",
"V.	c #5F729C",
"W.	c #5F739E",
"X.	c #7C95C9",
"Y.	c #768DBF",
"Z.	c #5D709A",
"`.	c #4A5879",
" +	c #86A1D9",
".+	c #7194EA",
"++	c #8CA8EA",
"@+	c #8DA9EA",
"#+	c #7790C8",
"$+	c #54648D",
"%+	c #687DAF",
"&+	c #758DC5",
"*+	c #768FC8",
"=+	c #768FC7",
"-+	c #758DC6",
";+	c #6C82B6",
">+	c #5A6C98",
",+	c #728AC0",
"'+	c #8CA8E9",
")+	c #6B8BDE",
"!+	c #88A5E7",
"~+	c #829FDF",
"{+	c #7A95D2",
"]+	c #7B96D3",
"^+	c #7B95D2",
"/+	c #839FE0",
"(+	c #87A5E7",
"                                                ",
"                                                ",
"                                                ",
"      . + + + + + @                             ",
"    # $ % % % % % &                             ",
"    * = = = = = = = - ; ; ; ; ; ; ; ; ; ; >     ",
"  , ' ' ' ' ' ' ' ' ' ' ' ' ' ' ' ' ' ' ' ' ,   ",
") ! ~ ~ ~ ~ { ] ^ / / / / / / ^ ( _ ~ ~ ~ ~ ! ) ",
": < [ [ [ } | 1 2 3 4 2 5 5 3 3 6 7 8 [ [ [ < : ",
"9 0 a b b c d e e f e g h i e e e j k b b a 0 9 ",
"l m n n n o i p q q r s t u v w w x y n n n z l ",
"  A B B B C D E F G H I J K L q M N O B B B A   ",
"  P Q Q Q R S T U V W X Y Z `  .T F ..Q Q Q P   ",
"  +.@.#.#.$.%.&.*.=.-.;.>.,.'.).!.~.{.#.#.@.+.  ",
"  ].^.^.^./.(._.:.<.[.}.|.1.2.3.4.(.5.^.^.^.].  ",
"  6.7.8.8.9.0.a.b.c.d.e.f.g.h.i.j.k.9.8.8.7.6.  ",
"  l.m.n.n.o.p.q.r.s.t.u.v.w.s.x.y.z.o.n.n.m.l.  ",
"  A.B.C.C.D.E.F.G.F.H.I.J.K.F.F.L.M.N.C.C.B.A.  ",
"  O.P.Q.Q.R.S.T.U.V.W.X.Y.V.V.V.Z.`. +Q.Q.P.O.  ",
"  .+++@+@+++#+$+%+&+*+=+=+*+-+;+>+,+'+@+@+++.+  ",
"  )+!+!+!+!+!+~+{+]+^+^+^+^+^+{+/+(+!+!+!+!+)+  ",
"                                                ",
"                                                ",
"                                                "};
