/* XPM */
static char * load_xpm[] = {
"24 24 176 2",
"  	c None",
". 	c #383838",
"+ 	c #F6F6F6",
"@ 	c #F7F7F7",
"# 	c #CBDBF4",
"$ 	c #C8DFF9",
"% 	c #CEE2FA",
"& 	c #CCDFF7",
"* 	c #B2C4D8",
"= 	c #9DACBE",
"- 	c #9CABBD",
"; 	c #B5C7DC",
"> 	c #CDE1F9",
", 	c #C4DCF9",
"' 	c #CBE0FA",
") 	c #C9DEF8",
"! 	c #8D9CB0",
"~ 	c #3C424D",
"{ 	c #383D48",
"] 	c #383D47",
"^ 	c #383C47",
"/ 	c #373D48",
"( 	c #3E434F",
"_ 	c #91A0B4",
": 	c #CADEF8",
"< 	c #BFD8F8",
"[ 	c #C6DCF9",
"} 	c #C7DCF9",
"| 	c #B1C4DF",
"1 	c #3D4350",
"2 	c #373C48",
"3 	c #373B48",
"4 	c #6F7B8D",
"5 	c #5D6978",
"6 	c #363C47",
"7 	c #3C424E",
"8 	c #AEC1DB",
"9 	c #BAD3F8",
"0 	c #C2D8F8",
"a 	c #99AAC4",
"b 	c #363B47",
"c 	c #353A47",
"d 	c #6F7C90",
"e 	c #BFD5F4",
"f 	c #B6CCEA",
"g 	c #5B6676",
"h 	c #363B46",
"i 	c #363B48",
"j 	c #363C48",
"k 	c #97A9C2",
"l 	c #BAD3F7",
"m 	c #BDD4F7",
"n 	c #93A5C1",
"o 	c #343A46",
"p 	c #343947",
"q 	c #343A47",
"r 	c #6E7C92",
"s 	c #B8CFF1",
"t 	c #BDD4F6",
"u 	c #BCD4F6",
"v 	c #AFC5E6",
"w 	c #5C687A",
"x 	c #353947",
"y 	c #353B47",
"z 	c #93A6C1",
"A 	c #B7CFF5",
"B 	c #8EA1BF",
"C 	c #323946",
"D 	c #333847",
"E 	c #66748B",
"F 	c #B1C9EE",
"G 	c #B5CDF2",
"H 	c #B6CFF4",
"I 	c #B3CBF0",
"J 	c #B6CEF4",
"K 	c #AAC1E4",
"L 	c #545F73",
"M 	c #8EA2C0",
"N 	c #B0C9F3",
"O 	c #B1CAF4",
"P 	c #899DBE",
"Q 	c #313745",
"R 	c #5A677F",
"S 	c #ABC3EC",
"T 	c #AEC6F0",
"U 	c #6D7D97",
"V 	c #AEC7F1",
"W 	c #9DB3D8",
"X 	c #8396B5",
"Y 	c #B0C8F2",
"Z 	c #A4BBE3",
"` 	c #3B4455",
" .	c #313946",
"..	c #8A9DBF",
"+.	c #AAC4F2",
"@.	c #8499BE",
"#.	c #2F3746",
"$.	c #7080A0",
"%.	c #A7C1ED",
"&.	c #697995",
"*.	c #363E4E",
"=.	c #A8C2EF",
"-.	c #96ADD6",
";.	c #363E4F",
">.	c #7C8EB0",
",.	c #A7C1EE",
"'.	c #3F495C",
").	c #8599BE",
"!.	c #A3BEF0",
"~.	c #A4BFF0",
"{.	c #7F95BC",
"].	c #303848",
"^.	c #6B7D9E",
"/.	c #637391",
"(.	c #323A4B",
"_.	c #363F52",
":.	c #A1BCED",
"<.	c #90A8D4",
"[.	c #343C50",
"}.	c #333C4F",
"|.	c #7487AA",
"1.	c #3F495E",
"2.	c #2F3747",
"3.	c #9DB8EE",
"4.	c #9DB9EF",
"5.	c #7B91BC",
"6.	c #343E52",
"7.	c #3A455B",
"8.	c #384157",
"9.	c #384257",
"0.	c #3C465D",
"a.	c #9BB6EC",
"b.	c #8BA4D4",
"c.	c #3A445B",
"d.	c #394358",
"e.	c #384258",
"f.	c #363F53",
"g.	c #97B2ED",
"h.	c #97B3ED",
"i.	c #7B91C0",
"j.	c #3C4760",
"k.	c #465370",
"l.	c #475471",
"m.	c #495775",
"n.	c #96B1EA",
"o.	c #88A1D5",
"p.	c #485572",
"q.	c #465371",
"r.	c #3F4B65",
"s.	c #798FBE",
"t.	c #91AEEB",
"u.	c #92AEEB",
"v.	c #89A4DE",
"w.	c #475475",
"x.	c #5B6D96",
"y.	c #5E719B",
"z.	c #5F729C",
"A.	c #5F739E",
"B.	c #7C95C9",
"C.	c #768DBF",
"D.	c #5D709A",
"E.	c #4A5879",
"F.	c #86A1D9",
"G.	c #8CA8EA",
"H.	c #8DA9EA",
"I.	c #7790C8",
"J.	c #54648D",
"K.	c #687DAF",
"L.	c #758DC5",
"M.	c #768FC8",
"N.	c #768FC7",
"O.	c #758DC6",
"P.	c #6C82B6",
"Q.	c #5A6C98",
"R.	c #728AC0",
"S.	c #8CA8E9",
"                                                ",
"                                                ",
"                                                ",
"      . . . . . . .                             ",
"    . + @ @ @ @ @ .                             ",
"    . . . . . . . . . . . . . . . . . . . .     ",
"  . # # # # # # # # # # # # # # # # # # # # .   ",
". $ % % % % & * = - - - - - - = ; > % % % % $ . ",
". , ' ' ' ) ! ~ { ] ^ { / / ] ] ( _ : ' ' ' , . ",
". < [ } } | 1 2 2 3 2 4 5 6 2 2 2 7 8 } } [ < . ",
". 9 0 0 0 a 6 b c c d e f g h i i j k 0 0 0 l . ",
". . m m m n o p q r s t u v w c x y z m m m . . ",
"  . A A A B C D E F G H I J K L D q M A A A .   ",
"  . N O O P Q R S T U V W X Y Z `  ...O O N .   ",
"  . +.+.+.@.#.$.%.&.*.=.-.;.>.,.'.#.).+.+.+..   ",
"  . !.~.~.{.].^./.(._.:.<.[.}.|.1.2.{.~.~.!..   ",
"  . 3.4.4.5.6.7.8.9.0.a.b.c.9.d.e.f.5.4.4.3..   ",
"  . g.h.h.i.j.k.l.k.m.n.o.p.k.k.q.r.s.h.h.g..   ",
"  . t.u.u.v.w.x.y.z.A.B.C.z.z.z.D.E.F.u.u.t..   ",
"  . G.H.H.G.I.J.K.L.M.N.N.M.O.P.Q.R.S.H.H.G..   ",
"  . . . . . . . . . . . . . . . . . . . . . .   ",
"                                                ",
"                                                ",
"                                                "};
