/* XPM */
static char * midi_pc_xpm[] = {
"24 24 356 2",
"  	c None",
". 	c #383838",
"+ 	c #AAAAAB",
"@ 	c #9E9E9F",
"# 	c #A0A0A1",
"$ 	c #A0A0A0",
"% 	c #9F9FA0",
"& 	c #AAAAAA",
"* 	c #666667",
"= 	c #141515",
"- 	c #090909",
"; 	c #0B0B0B",
"> 	c #0F0F0F",
", 	c #0A0A0A",
"' 	c #0F0F10",
") 	c #0D0D0E",
"! 	c #0E0E0F",
"~ 	c #111111",
"{ 	c #0A0A0B",
"] 	c #0D0D0D",
"^ 	c #121213",
"/ 	c #636364",
"( 	c #A1A1A2",
"_ 	c #121212",
": 	c #000000",
"< 	c #3E4545",
"[ 	c #9E9E9A",
"} 	c #353B3B",
"| 	c #9D9F9C",
"1 	c #0B0B09",
"2 	c #767676",
"3 	c #838383",
"4 	c #1A1A1A",
"5 	c #BABBBB",
"6 	c #C0C0BF",
"7 	c #848580",
"8 	c #050504",
"9 	c #8B8B8B",
"0 	c #686868",
"a 	c #111012",
"b 	c #999999",
"c 	c #040404",
"d 	c #768080",
"e 	c #E2E3DE",
"f 	c #A5ACAA",
"g 	c #D1D4CD",
"h 	c #1E1E1B",
"i 	c #969696",
"j 	c #A7A7A7",
"k 	c #262626",
"l 	c #D5D5D5",
"m 	c #4A4C4C",
"n 	c #CDD0CC",
"o 	c #2D2D2A",
"p 	c #B0B0B0",
"q 	c #868686",
"r 	c #959596",
"s 	c #99999A",
"t 	c #030404",
"u 	c #889797",
"v 	c #AAB0AF",
"w 	c #D0D1CB",
"x 	c #C1C2BB",
"y 	c #252521",
"z 	c #DBDBDB",
"A 	c #909291",
"B 	c #CED0CA",
"C 	c #262620",
"D 	c #858585",
"E 	c #959595",
"F 	c #969697",
"G 	c #030304",
"H 	c #6F7676",
"I 	c #5C5C5C",
"J 	c #393939",
"K 	c #8B8B88",
"L 	c #1B1B19",
"M 	c #676767",
"N 	c #737373",
"O 	c #111212",
"P 	c #9B9C9C",
"Q 	c #A1A1A0",
"R 	c #4E4E49",
"S 	c #010101",
"T 	c #797979",
"U 	c #5B5B5B",
"V 	c #929293",
"W 	c #929292",
"X 	c #030303",
"Y 	c #8D8E8E",
"Z 	c #8E8E8F",
"` 	c #C9CAC9",
" .	c #A3A49F",
"..	c #747675",
"+.	c #959594",
"@.	c #2F302C",
"#.	c #7E8282",
"$.	c #7B7B77",
"%.	c #1E2120",
"&.	c #8A8D8D",
"*.	c #6C6C67",
"=.	c #838584",
"-.	c #8C8C8A",
";.	c #191A17",
">.	c #7E8181",
",.	c #31312A",
"'.	c #7C7C7B",
").	c #292924",
"!.	c #7B7E7E",
"~.	c #1C1C1C",
"{.	c #8A8A8B",
"].	c #8B8B8C",
"^.	c #B5B5B5",
"/.	c #ACACAC",
"(.	c #D5D7D2",
"_.	c #BBBBBB",
":.	c #B2B5B4",
"<.	c #B2B9B0",
"[.	c #9A9B98",
"}.	c #A6A8A6",
"|.	c #AFB6B0",
"1.	c #82837E",
"2.	c #5B5D5C",
"3.	c #BFBFBF",
"4.	c #C1C4C2",
"5.	c #6A6E63",
"6.	c #C4CAC7",
"7.	c #9FA19A",
"8.	c #B1B9B8",
"9.	c #A3A69F",
"0.	c #DCE0DD",
"a.	c #3A3A2E",
"b.	c #878889",
"c.	c #89898A",
"d.	c #BCBCBC",
"e.	c #6E6E6A",
"f.	c #B6B6B6",
"g.	c #B3B7B4",
"h.	c #85908C",
"i.	c #B1B2B0",
"j.	c #B7BAB7",
"k.	c #A0A7A0",
"l.	c #A9AAA7",
"m.	c #BABABA",
"n.	c #B6BAB6",
"o.	c #9EA5A2",
"p.	c #C1C2C0",
"q.	c #C9CCC6",
"r.	c #A0B1B0",
"s.	c #BABEBC",
"t.	c #BBBBB4",
"u.	c #52523F",
"v.	c #868788",
"w.	c #4C4C4C",
"x.	c #555555",
"y.	c #272D2D",
"z.	c #4F514D",
"A.	c #535656",
"B.	c #50504E",
"C.	c #101211",
"D.	c #5F6262",
"E.	c #4E4E4C",
"F.	c #535353",
"G.	c #3A4342",
"H.	c #646862",
"I.	c #1D1D1C",
"J.	c #535553",
"K.	c #585A58",
"L.	c #1A1B1A",
"M.	c #4F4F4E",
"N.	c #282826",
"O.	c #858687",
"P.	c #868787",
"Q.	c #060707",
"R.	c #070707",
"S.	c #858586",
"T.	c #232323",
"U.	c #151516",
"V.	c #141413",
"W.	c #262625",
"X.	c #1B1B1B",
"Y.	c #1E1E1E",
"Z.	c #20201F",
"`.	c #40403F",
" +	c #242323",
".+	c #131414",
"++	c #151515",
"@+	c #202020",
"#+	c #181818",
"$+	c #212120",
"%+	c #101111",
"&+	c #232322",
"*+	c #2E2E2D",
"=+	c #333332",
"-+	c #919292",
";+	c #51514E",
">+	c #1F201F",
",+	c #40403E",
"'+	c #7A7974",
")+	c #232423",
"!+	c #5A5955",
"~+	c #9D9D9A",
"{+	c #61615F",
"]+	c #3A3A38",
"^+	c #63625E",
"/+	c #202120",
"(+	c #292927",
"_+	c #676662",
":+	c #212221",
"<+	c #1D1D1D",
"[+	c #70706B",
"}+	c #8B8A85",
"|+	c #8F8F89",
"1+	c #949595",
"2+	c #9D9E9D",
"3+	c #797976",
"4+	c #272827",
"5+	c #61615E",
"6+	c #B3B2AD",
"7+	c #323332",
"8+	c #2A2A29",
"9+	c #83837E",
"0+	c #CAC9C5",
"a+	c #828280",
"b+	c #272727",
"c+	c #585856",
"d+	c #92918D",
"e+	c #292929",
"f+	c #3E3E3C",
"g+	c #989793",
"h+	c #2D2E2E",
"i+	c #282827",
"j+	c #A5A49E",
"k+	c #C8C7C0",
"l+	c #CFCEC7",
"m+	c #A4A5A3",
"n+	c #A1A2A2",
"o+	c #848482",
"p+	c #6A6A69",
"q+	c #C2C2BE",
"r+	c #343434",
"s+	c #8F8E8C",
"t+	c #D7D7D3",
"u+	c #8A8A88",
"v+	c #636361",
"w+	c #9F9F9D",
"x+	c #444443",
"y+	c #A6A6A3",
"z+	c #2C2C2C",
"A+	c #272726",
"B+	c #B6B5B1",
"C+	c #D7D7D1",
"D+	c #DFDFDA",
"E+	c #AAABAA",
"F+	c #A5A6A6",
"G+	c #858584",
"H+	c #191919",
"I+	c #6C6C6B",
"J+	c #C9C8C5",
"K+	c #333333",
"L+	c #212121",
"M+	c #929290",
"N+	c #DDDDDA",
"O+	c #8B8B89",
"P+	c #646463",
"Q+	c #A4A4A2",
"R+	c #434342",
"S+	c #ABABA9",
"T+	c #2A2A2A",
"U+	c #242424",
"V+	c #BABAB6",
"W+	c #DDDCD8",
"X+	c #E6E6E2",
"Y+	c #AEAFAF",
"Z+	c #AAABAB",
"`+	c #898987",
" @	c #3B3B3C",
".@	c #717171",
"+@	c #CFCFCD",
"@@	c #474747",
"#@	c #3D3D3D",
"$@	c #9B9B99",
"%@	c #E1E1DE",
"&@	c #91918F",
"*@	c #3B3B3B",
"=@	c #6B6B6A",
"-@	c #AAAAA8",
";@	c #3D3C3D",
">@	c #4B4B4B",
",@	c #B1B1AF",
"'@	c #434343",
")@	c #C2C1BF",
"!@	c #E2E1DE",
"~@	c #ECECE9",
"{@	c #B4B4B5",
"]@	c #B0B1B1",
"^@	c #90908F",
"/@	c #454544",
"(@	c #E6E6E4",
"_@	c #4D4D4D",
":@	c #494949",
"<@	c #C7C7C6",
"[@	c #E7E7E5",
"}@	c #A3A3A2",
"|@	c #565655",
"1@	c #BBBBB9",
"2@	c #4B4B4A",
"3@	c #6F6E6E",
"4@	c #CCCCCB",
"5@	c #4E4E4D",
"6@	c #E1E1DF",
"7@	c #E6E6E3",
"8@	c #F0F0EE",
"9@	c #B7B8B8",
"0@	c #BFC0C1",
"a@	c #DADAD9",
"b@	c #DFDFDE",
"c@	c #ECECEA",
"d@	c #F6F6F5",
"e@	c #DCDCDA",
"f@	c #E9E9E8",
"g@	c #F5F5F4",
"h@	c #F8F8F7",
"i@	c #F7F7F6",
"j@	c #E7E7E6",
"k@	c #F4F4F3",
"l@	c #D9D9D7",
"m@	c #EEEEEC",
"n@	c #EBEBEA",
"o@	c #E9E9E7",
"p@	c #BCBEBF",
"q@	c #C7C7C7",
"r@	c #E1E1E0",
"s@	c #F3F3F3",
"t@	c #FAFAF9",
"u@	c #F9F9F9",
"v@	c #ECECEB",
"w@	c #FAFAFA",
"x@	c #F7F7F7",
"y@	c #EDEDEC",
"z@	c #F9F9F8",
"A@	c #E7E6E5",
"B@	c #EBEBE9",
"C@	c #E6E6E5",
"D@	c #CECECE",
"E@	c #BDBEBF",
"F@	c #BCBDBE",
"G@	c #C2C2C4",
"H@	c #BBBCBD",
"I@	c #C1C2C3",
"J@	c #C2C2C3",
"K@	c #BBBCBC",
"L@	c #BEBFC0",
"M@	c #BBBBBC",
"N@	c #BCBDBD",
"O@	c #B5B6B6",
"      . . . . . . . . . . . . . . . . . .       ",
"    . + @ # # $ # # # $ # # # # # # # % & .     ",
"  . * = - ; > , ' , ) ! , ~ ~ { , > ] , ^ / .   ",
". ( _ : : < [ } | 1 2 3 4 5 6 7 8 9 0 : : a @ . ",
". b c : : d e f g h i j k l m n o p q : : c r . ",
". s t : : u v w x y i j k z A B C p D : : c E . ",
". F G : : H I J K L M N O P Q R S T U : : c V . ",
". W - ~ X : : : : : : : : : : : : : : : : c Y . ",
". Z Y `  ...+.@.#.$.%.&.*.=.-.;.>.,.'.).!.~.{.. ",
". ].^./.(._.:.<.[.}.|.1.2.3.4.5.6.7.8.9.0.a.b.. ",
". c.^.d.e.f.g.h.i.j.k.l.m.d.n.o.p.q.r.s.t.u.v.. ",
". b.2 w.S x.y.z.A.B.C.D.E.F.G.H.I.J.K.L.M.N.O.. ",
". P.Q.: : : : : : : : : : : : : : : : : : R.S.. ",
". b.T.U.V.W.X.Y.Z.`. +.+++W.@+#+$+~ %+&+*+=+b.. ",
". -+;+>+,+'+)+@+!+~+{+>+]+^+/+(+_+:+<+[+}+|+1+. ",
". 2+3+4+5+6+7+8+9+0+a+b+c+d+e+f+g+h+i+j+k+l+m+. ",
". n+o+@+p+q+r+k s+t+u+@+v+w+T.x+y+z+A+B+C+D+E+. ",
". F+G+H+I+J+K+L+M+N+O+H+P+Q+~.R+S+T+U+V+W+X+Y+. ",
". Z+`+ @.@+@@@#@$@%@&@*@=@-@;@>@,@'@J )@!@~@{@. ",
". ]@^@/@+.(@_@:@<@[@}@|@^@1@2@3@4@@@5@6@7@8@9@. ",
". 0@a@b@c@d@e@f@g@f@h@i@j@k@l@m@g@e@n@k@o@m@p@. ",
"  . q@r@s@t@o@u@u@v@w@x@y@z@A@z@t@B@t@h@C@D@.   ",
"    . E@F@G@H@I@J@5 K@5 L@G@M@I@G@N@G@0@O@.     ",
"      . . . . . . . . . . . . . . . . . .       "};
