/* XPM */
static char * midi_learn_xpm[] = {
"24 24 352 2",
"  	c None",
". 	c #383838",
"+ 	c #AAAAAB",
"@ 	c #9E9E9F",
"# 	c #A0A0A1",
"$ 	c #A0A0A0",
"% 	c #9F9FA0",
"& 	c #AAAAAA",
"* 	c #666667",
"= 	c #141515",
"- 	c #090909",
"; 	c #0B0B0B",
"> 	c #0F0F0F",
", 	c #0A0A0A",
"' 	c #0F0F10",
") 	c #0D0D0E",
"! 	c #0E0E0F",
"~ 	c #111111",
"{ 	c #0A0A0B",
"] 	c #0D0D0D",
"^ 	c #121213",
"/ 	c #636364",
"( 	c #A1A1A2",
"_ 	c #121212",
": 	c #000000",
"< 	c #3E4545",
"[ 	c #9E9E9A",
"} 	c #353B3B",
"| 	c #9D9F9C",
"1 	c #0B0B09",
"2 	c #767676",
"3 	c #838383",
"4 	c #1A1A1A",
"5 	c #BABBBB",
"6 	c #C0C0BF",
"7 	c #848580",
"8 	c #050504",
"9 	c #8B8B8B",
"0 	c #686868",
"a 	c #111012",
"b 	c #999999",
"c 	c #040404",
"d 	c #768080",
"e 	c #E2E3DE",
"f 	c #A5ACAA",
"g 	c #D1D4CD",
"h 	c #1E1E1B",
"i 	c #969696",
"j 	c #A7A7A7",
"k 	c #262626",
"l 	c #D5D5D5",
"m 	c #4A4C4C",
"n 	c #CDD0CC",
"o 	c #2D2D2A",
"p 	c #B0B0B0",
"q 	c #868686",
"r 	c #959596",
"s 	c #99999A",
"t 	c #030404",
"u 	c #889797",
"v 	c #AAB0AF",
"w 	c #D0D1CB",
"x 	c #C1C2BB",
"y 	c #252521",
"z 	c #DBDBDB",
"A 	c #909291",
"B 	c #CED0CA",
"C 	c #262620",
"D 	c #858585",
"E 	c #959595",
"F 	c #969697",
"G 	c #030304",
"H 	c #6F7676",
"I 	c #5C5C5C",
"J 	c #393939",
"K 	c #8B8B88",
"L 	c #1B1B19",
"M 	c #676767",
"N 	c #737373",
"O 	c #111212",
"P 	c #9B9C9C",
"Q 	c #A1A1A0",
"R 	c #4E4E49",
"S 	c #010101",
"T 	c #797979",
"U 	c #5B5B5B",
"V 	c #929293",
"W 	c #929292",
"X 	c #101010",
"Y 	c #131313",
"Z 	c #080808",
"` 	c #020303",
" .	c #0E0E0E",
"..	c #0F0F0E",
"+.	c #060606",
"@.	c #8D8E8E",
"#.	c #8E8E8F",
"$.	c #616161",
"%.	c #151515",
"&.	c #BABABA",
"*.	c #CBCBCB",
"=.	c #7E7E7E",
"-.	c #717676",
";.	c #BEBEBB",
">.	c #1B1B18",
",.	c #B1B2B2",
"'.	c #C4C4C4",
").	c #7C7C78",
"!.	c #A0A09F",
"~.	c #76766F",
"{.	c #4B4B4B",
"].	c #8A8A8B",
"^.	c #8B8B8C",
"/.	c #B4B4B4",
"(.	c #777777",
"_.	c #1C1C1C",
":.	c #DCDCDC",
"<.	c #C1C1C1",
"[.	c #535353",
"}.	c #0A0D0D",
"|.	c #BEC3C2",
"1.	c #CBCFCB",
"2.	c #6D6E62",
"3.	c #1B1B1B",
"4.	c #D7D7D7",
"5.	c #9EA0A0",
"6.	c #BEBEB9",
"7.	c #10100E",
"8.	c #C3C3C3",
"9.	c #D2D4D1",
"0.	c #CBCBC8",
"a.	c #878889",
"b.	c #89898A",
"c.	c #B5B5B5",
"d.	c #AFAFAF",
"e.	c #1E1E1E",
"f.	c #D9D9D9",
"g.	c #A6A6A6",
"h.	c #707070",
"i.	c #2F3636",
"j.	c #DEE2E1",
"k.	c #D4D5D5",
"l.	c #B8B8B3",
"m.	c #1E1E1D",
"n.	c #D8D8D8",
"o.	c #D1D4D3",
"p.	c #7E7E78",
"q.	c #C0C0C0",
"r.	c #686F6F",
"s.	c #EBEDED",
"t.	c #868788",
"u.	c #848484",
"v.	c #3A4747",
"w.	c #777774",
"x.	c #222424",
"y.	c #848680",
"z.	c #151514",
"A.	c #8A8A8A",
"B.	c #3C4141",
"C.	c #848480",
"D.	c #0B0B08",
"E.	c #777A7A",
"F.	c #3A3A3A",
"G.	c #858687",
"H.	c #868787",
"I.	c #060707",
"J.	c #070707",
"K.	c #858586",
"L.	c #232323",
"M.	c #151516",
"N.	c #141413",
"O.	c #262625",
"P.	c #1F1F1E",
"Q.	c #273133",
"R.	c #192324",
"S.	c #131414",
"T.	c #202020",
"U.	c #171717",
"V.	c #212222",
"W.	c #0F232D",
"X.	c #0B1C26",
"Y.	c #232322",
"Z.	c #2E2E2D",
"`.	c #333332",
" +	c #919292",
".+	c #51514E",
"++	c #1F201F",
"@+	c #40403E",
"#+	c #7A7974",
"$+	c #232423",
"%+	c #595956",
"&+	c #7398A0",
"*+	c #496E76",
"=+	c #3A3A38",
"-+	c #63625E",
";+	c #202120",
">+	c #292927",
",+	c #666867",
"'+	c #0C6692",
")+	c #0C567C",
"!+	c #70706C",
"~+	c #8B8A85",
"{+	c #8F8F89",
"]+	c #949595",
"^+	c #9D9E9D",
"/+	c #797976",
"(+	c #272827",
"_+	c #61615E",
":+	c #B3B2AD",
"<+	c #323332",
"[+	c #2A2A29",
"}+	c #83837F",
"|+	c #A2D1E0",
"1+	c #709AA6",
"2+	c #272727",
"3+	c #585856",
"4+	c #92918D",
"5+	c #292929",
"6+	c #3E3E3C",
"7+	c #979999",
"8+	c #1585CA",
"9+	c #1671AD",
"0+	c #A5A49F",
"a+	c #C8C7C0",
"b+	c #CFCEC7",
"c+	c #A4A5A3",
"d+	c #A1A2A2",
"e+	c #848482",
"f+	c #6A6A69",
"g+	c #C2C2BE",
"h+	c #343434",
"i+	c #8F8F8D",
"j+	c #A7D2E5",
"k+	c #7C9AA8",
"l+	c #636361",
"m+	c #9F9F9D",
"n+	c #444443",
"o+	c #A6A7A8",
"p+	c #177CCA",
"q+	c #1969AD",
"r+	c #B6B5B2",
"s+	c #D7D7D1",
"t+	c #DFDFDA",
"u+	c #AAABAA",
"v+	c #A5A6A6",
"w+	c #858584",
"x+	c #191919",
"y+	c #6C6C6B",
"z+	c #C9C8C5",
"A+	c #333333",
"B+	c #212121",
"C+	c #929290",
"D+	c #A5CDE4",
"E+	c #6F92A6",
"F+	c #646463",
"G+	c #A4A4A2",
"H+	c #434342",
"I+	c #ABACAE",
"J+	c #1770C6",
"K+	c #1960AA",
"L+	c #BABAB7",
"M+	c #DDDCD8",
"N+	c #E6E6E2",
"O+	c #AEAFAF",
"P+	c #AAABAB",
"Q+	c #898987",
"R+	c #3B3B3C",
"S+	c #717171",
"T+	c #CFCFCD",
"U+	c #474747",
"V+	c #3D3D3D",
"W+	c #9B9B9A",
"X+	c #A3C8E4",
"Y+	c #5F87A5",
"Z+	c #3B3B3B",
"`+	c #6B6B6A",
" @	c #AAAAA8",
".@	c #3D3C3D",
"+@	c #B1B2B3",
"@@	c #1961B3",
"#@	c #1C559B",
"$@	c #C1C1BF",
"%@	c #E2E1DE",
"&@	c #ECECE9",
"*@	c #B4B4B5",
"=@	c #B0B1B1",
"-@	c #90908F",
";@	c #454544",
">@	c #959594",
",@	c #E6E6E4",
"'@	c #4D4D4D",
")@	c #494949",
"!@	c #C7C7C6",
"~@	c #A4C6E6",
"{@	c #497CA5",
"]@	c #2E3C4A",
"^@	c #8F8F8E",
"/@	c #BBBBB9",
"(@	c #4B4B4A",
"_@	c #6F6E6E",
":@	c #CCCDCC",
"<@	c #3F537A",
"[@	c #495774",
"}@	c #E1E1DF",
"|@	c #E6E6E3",
"1@	c #F0F0EE",
"2@	c #B7B8B8",
"3@	c #BFC0C1",
"4@	c #DADAD9",
"5@	c #DFDFDE",
"6@	c #ECECEA",
"7@	c #F6F6F5",
"8@	c #DCDCDA",
"9@	c #E9E9E8",
"0@	c #F5F5F4",
"a@	c #9FC0E5",
"b@	c #52A0E1",
"c@	c #589CD7",
"d@	c #E3E4E5",
"e@	c #F4F4F3",
"f@	c #D9D9D7",
"g@	c #EEEEEC",
"h@	c #EBEBEA",
"i@	c #E9E9E7",
"j@	c #BCBEBF",
"k@	c #C7C7C7",
"l@	c #E1E1E0",
"m@	c #F3F3F3",
"n@	c #FAFAF9",
"o@	c #F9F9F9",
"p@	c #99BBE3",
"q@	c #3F96E0",
"r@	c #4B98DE",
"s@	c #EAECED",
"t@	c #E7E7E5",
"u@	c #F9F9F8",
"v@	c #EBEBE9",
"w@	c #F8F8F7",
"x@	c #E6E6E5",
"y@	c #CECECE",
"z@	c #BDBEBF",
"A@	c #BCBDBE",
"B@	c #C2C2C4",
"C@	c #BBBCBD",
"D@	c #C1C2C3",
"E@	c #A0ABBA",
"F@	c #8FA0B8",
"G@	c #91A1B8",
"H@	c #BBBDBF",
"I@	c #BBBBBC",
"J@	c #BCBDBD",
"K@	c #B5B6B6",
"      . . . . . . . . . . . . . . . . . .       ",
"    . + @ # # $ # # # $ # # # # # # # % & .     ",
"  . * = - ; > , ' , ) ! , ~ ~ { , > ] , ^ / .   ",
". ( _ : : < [ } | 1 2 3 4 5 6 7 8 9 0 : : a @ . ",
". b c : : d e f g h i j k l m n o p q : : c r . ",
". s t : : u v w x y i j k z A B C p D : : c E . ",
". F G : : H I J K L M N O P Q R S T U : : c V . ",
". W ] c : : X Y Z : `  .: : ; ..S : ; S ; +.@.. ",
". #.E $.: %.&.*.=.: -.;.>._ ,.'.).+.!.~.b {.].. ",
". ^./.(.: _.:.<.[.}.|.1.2.3.4.5.6.7.8.9.0.I a.. ",
". b.c.d.(.e.f.g.h.i.j.k.l.m.n.o.p.- q.r.s.I t.. ",
". a.(.j u._ E j T v.w.x.y.z.A.B.C.D.=.k E.F.G.. ",
". H.I.: : : : : : : : : : : : : : : : : : J.K.. ",
". a.L.M.N.O.3.e.P.Q.R.S.%.O.T.U.V.W.X.Y.Z.`.a.. ",
".  +.+++@+#+$+T.%+&+*+++=+-+;+>+,+'+)+!+~+{+]+. ",
". ^+/+(+_+:+<+[+}+|+1+2+3+4+5+6+7+8+9+0+a+b+c+. ",
". d+e+T.f+g+h+k i+j+k+T.l+m+L.n+o+p+q+r+s+t+u+. ",
". v+w+x+y+z+A+B+C+D+E+x+F+G+_.H+I+J+K+L+M+N+O+. ",
". P+Q+R+S+T+U+V+W+X+Y+Z+`+ @.@{.+@@@#@$@%@&@*@. ",
". =@-@;@>@,@'@)@!@~@{@]@^@/@(@_@:@<@[@}@|@1@2@. ",
". 3@4@5@6@7@8@9@0@a@b@c@d@e@f@g@0@8@h@e@i@g@j@. ",
"  . k@l@m@n@i@o@o@p@q@r@s@n@t@u@n@v@n@w@x@y@.   ",
"    . z@A@B@C@D@D@E@F@G@H@B@I@D@B@J@B@3@K@.     ",
"      . . . . . . . . . . . . . . . . . .       "};
