/* XPM */
static char * midi_pc_xpm[] = {
"24 24 355 2",
"  	c None",
". 	c #AAAAAB",
"+ 	c #9E9E9F",
"@ 	c #A0A0A1",
"# 	c #A0A0A0",
"$ 	c #9F9FA0",
"% 	c #AAAAAA",
"& 	c #666667",
"* 	c #141515",
"= 	c #090909",
"- 	c #0B0B0B",
"; 	c #0F0F0F",
"> 	c #0A0A0A",
", 	c #0F0F10",
"' 	c #0D0D0E",
") 	c #0E0E0F",
"! 	c #111111",
"~ 	c #0A0A0B",
"{ 	c #0D0D0D",
"] 	c #121213",
"^ 	c #636364",
"/ 	c #A1A1A2",
"( 	c #121212",
"_ 	c #000000",
": 	c #3E4545",
"< 	c #9E9E9A",
"[ 	c #353B3B",
"} 	c #9D9F9C",
"| 	c #0B0B09",
"1 	c #767676",
"2 	c #838383",
"3 	c #1A1A1A",
"4 	c #BABBBB",
"5 	c #C0C0BF",
"6 	c #848580",
"7 	c #050504",
"8 	c #8B8B8B",
"9 	c #686868",
"0 	c #111012",
"a 	c #999999",
"b 	c #040404",
"c 	c #768080",
"d 	c #E2E3DE",
"e 	c #A5ACAA",
"f 	c #D1D4CD",
"g 	c #1E1E1B",
"h 	c #969696",
"i 	c #A7A7A7",
"j 	c #262626",
"k 	c #D5D5D5",
"l 	c #4A4C4C",
"m 	c #CDD0CC",
"n 	c #2D2D2A",
"o 	c #B0B0B0",
"p 	c #868686",
"q 	c #959596",
"r 	c #99999A",
"s 	c #030404",
"t 	c #889797",
"u 	c #AAB0AF",
"v 	c #D0D1CB",
"w 	c #C1C2BB",
"x 	c #252521",
"y 	c #DBDBDB",
"z 	c #909291",
"A 	c #CED0CA",
"B 	c #262620",
"C 	c #858585",
"D 	c #959595",
"E 	c #969697",
"F 	c #030304",
"G 	c #6F7676",
"H 	c #5C5C5C",
"I 	c #393939",
"J 	c #8B8B88",
"K 	c #1B1B19",
"L 	c #676767",
"M 	c #737373",
"N 	c #111212",
"O 	c #9B9C9C",
"P 	c #A1A1A0",
"Q 	c #4E4E49",
"R 	c #010101",
"S 	c #797979",
"T 	c #5B5B5B",
"U 	c #929293",
"V 	c #929292",
"W 	c #030303",
"X 	c #8D8E8E",
"Y 	c #8E8E8F",
"Z 	c #C9CAC9",
"` 	c #A3A49F",
" .	c #747675",
"..	c #959594",
"+.	c #2F302C",
"@.	c #7E8282",
"#.	c #7B7B77",
"$.	c #1E2120",
"%.	c #8A8D8D",
"&.	c #6C6C67",
"*.	c #838584",
"=.	c #8C8C8A",
"-.	c #191A17",
";.	c #7E8181",
">.	c #31312A",
",.	c #7C7C7B",
"'.	c #292924",
").	c #7B7E7E",
"!.	c #1C1C1C",
"~.	c #8A8A8B",
"{.	c #8B8B8C",
"].	c #B5B5B5",
"^.	c #ACACAC",
"/.	c #D5D7D2",
"(.	c #BBBBBB",
"_.	c #B2B5B4",
":.	c #B2B9B0",
"<.	c #9A9B98",
"[.	c #A6A8A6",
"}.	c #AFB6B0",
"|.	c #82837E",
"1.	c #5B5D5C",
"2.	c #BFBFBF",
"3.	c #C1C4C2",
"4.	c #6A6E63",
"5.	c #C4CAC7",
"6.	c #9FA19A",
"7.	c #B1B9B8",
"8.	c #A3A69F",
"9.	c #DCE0DD",
"0.	c #3A3A2E",
"a.	c #878889",
"b.	c #89898A",
"c.	c #BCBCBC",
"d.	c #6E6E6A",
"e.	c #B6B6B6",
"f.	c #B3B7B4",
"g.	c #85908C",
"h.	c #B1B2B0",
"i.	c #B7BAB7",
"j.	c #A0A7A0",
"k.	c #A9AAA7",
"l.	c #BABABA",
"m.	c #B6BAB6",
"n.	c #9EA5A2",
"o.	c #C1C2C0",
"p.	c #C9CCC6",
"q.	c #A0B1B0",
"r.	c #BABEBC",
"s.	c #BBBBB4",
"t.	c #52523F",
"u.	c #868788",
"v.	c #4C4C4C",
"w.	c #555555",
"x.	c #272D2D",
"y.	c #4F514D",
"z.	c #535656",
"A.	c #50504E",
"B.	c #101211",
"C.	c #5F6262",
"D.	c #4E4E4C",
"E.	c #535353",
"F.	c #3A4342",
"G.	c #646862",
"H.	c #1D1D1C",
"I.	c #535553",
"J.	c #585A58",
"K.	c #1A1B1A",
"L.	c #4F4F4E",
"M.	c #282826",
"N.	c #858687",
"O.	c #868787",
"P.	c #060707",
"Q.	c #070707",
"R.	c #858586",
"S.	c #232323",
"T.	c #151516",
"U.	c #141413",
"V.	c #262625",
"W.	c #1B1B1B",
"X.	c #1E1E1E",
"Y.	c #20201F",
"Z.	c #40403F",
"`.	c #242323",
" +	c #131414",
".+	c #151515",
"++	c #202020",
"@+	c #181818",
"#+	c #212120",
"$+	c #101111",
"%+	c #232322",
"&+	c #2E2E2D",
"*+	c #333332",
"=+	c #919292",
"-+	c #51514E",
";+	c #1F201F",
">+	c #40403E",
",+	c #7A7974",
"'+	c #232423",
")+	c #5A5955",
"!+	c #9D9D9A",
"~+	c #61615F",
"{+	c #3A3A38",
"]+	c #63625E",
"^+	c #202120",
"/+	c #292927",
"(+	c #676662",
"_+	c #212221",
":+	c #1D1D1D",
"<+	c #70706B",
"[+	c #8B8A85",
"}+	c #8F8F89",
"|+	c #949595",
"1+	c #9D9E9D",
"2+	c #797976",
"3+	c #272827",
"4+	c #61615E",
"5+	c #B3B2AD",
"6+	c #323332",
"7+	c #2A2A29",
"8+	c #83837E",
"9+	c #CAC9C5",
"0+	c #828280",
"a+	c #272727",
"b+	c #585856",
"c+	c #92918D",
"d+	c #292929",
"e+	c #3E3E3C",
"f+	c #989793",
"g+	c #2D2E2E",
"h+	c #282827",
"i+	c #A5A49E",
"j+	c #C8C7C0",
"k+	c #CFCEC7",
"l+	c #A4A5A3",
"m+	c #A1A2A2",
"n+	c #848482",
"o+	c #6A6A69",
"p+	c #C2C2BE",
"q+	c #343434",
"r+	c #8F8E8C",
"s+	c #D7D7D3",
"t+	c #8A8A88",
"u+	c #636361",
"v+	c #9F9F9D",
"w+	c #444443",
"x+	c #A6A6A3",
"y+	c #2C2C2C",
"z+	c #272726",
"A+	c #B6B5B1",
"B+	c #D7D7D1",
"C+	c #DFDFDA",
"D+	c #AAABAA",
"E+	c #A5A6A6",
"F+	c #858584",
"G+	c #191919",
"H+	c #6C6C6B",
"I+	c #C9C8C5",
"J+	c #333333",
"K+	c #212121",
"L+	c #929290",
"M+	c #DDDDDA",
"N+	c #8B8B89",
"O+	c #646463",
"P+	c #A4A4A2",
"Q+	c #434342",
"R+	c #ABABA9",
"S+	c #2A2A2A",
"T+	c #242424",
"U+	c #BABAB6",
"V+	c #DDDCD8",
"W+	c #E6E6E2",
"X+	c #AEAFAF",
"Y+	c #AAABAB",
"Z+	c #898987",
"`+	c #3B3B3C",
" @	c #717171",
".@	c #CFCFCD",
"+@	c #474747",
"@@	c #3D3D3D",
"#@	c #9B9B99",
"$@	c #E1E1DE",
"%@	c #91918F",
"&@	c #3B3B3B",
"*@	c #6B6B6A",
"=@	c #AAAAA8",
"-@	c #3D3C3D",
";@	c #4B4B4B",
">@	c #B1B1AF",
",@	c #434343",
"'@	c #C2C1BF",
")@	c #E2E1DE",
"!@	c #ECECE9",
"~@	c #B4B4B5",
"{@	c #B0B1B1",
"]@	c #90908F",
"^@	c #454544",
"/@	c #E6E6E4",
"(@	c #4D4D4D",
"_@	c #494949",
":@	c #C7C7C6",
"<@	c #E7E7E5",
"[@	c #A3A3A2",
"}@	c #565655",
"|@	c #BBBBB9",
"1@	c #4B4B4A",
"2@	c #6F6E6E",
"3@	c #CCCCCB",
"4@	c #4E4E4D",
"5@	c #E1E1DF",
"6@	c #E6E6E3",
"7@	c #F0F0EE",
"8@	c #B7B8B8",
"9@	c #BFC0C1",
"0@	c #DADAD9",
"a@	c #DFDFDE",
"b@	c #ECECEA",
"c@	c #F6F6F5",
"d@	c #DCDCDA",
"e@	c #E9E9E8",
"f@	c #F5F5F4",
"g@	c #F8F8F7",
"h@	c #F7F7F6",
"i@	c #E7E7E6",
"j@	c #F4F4F3",
"k@	c #D9D9D7",
"l@	c #EEEEEC",
"m@	c #EBEBEA",
"n@	c #E9E9E7",
"o@	c #BCBEBF",
"p@	c #C7C7C7",
"q@	c #E1E1E0",
"r@	c #F3F3F3",
"s@	c #FAFAF9",
"t@	c #F9F9F9",
"u@	c #ECECEB",
"v@	c #FAFAFA",
"w@	c #F7F7F7",
"x@	c #EDEDEC",
"y@	c #F9F9F8",
"z@	c #E7E6E5",
"A@	c #EBEBE9",
"B@	c #E6E6E5",
"C@	c #CECECE",
"D@	c #BDBEBF",
"E@	c #BCBDBE",
"F@	c #C2C2C4",
"G@	c #BBBCBD",
"H@	c #C1C2C3",
"I@	c #C2C2C3",
"J@	c #BBBCBC",
"K@	c #BEBFC0",
"L@	c #BBBBBC",
"M@	c #BCBDBD",
"N@	c #B5B6B6",
"                                                ",
"      . + @ @ # @ @ @ # @ @ @ @ @ @ @ $ %       ",
"    & * = - ; > , > ' ) > ! ! ~ > ; { > ] ^     ",
"  / ( _ _ : < [ } | 1 2 3 4 5 6 7 8 9 _ _ 0 +   ",
"  a b _ _ c d e f g h i j k l m n o p _ _ b q   ",
"  r s _ _ t u v w x h i j y z A B o C _ _ b D   ",
"  E F _ _ G H I J K L M N O P Q R S T _ _ b U   ",
"  V = ! W _ _ _ _ _ _ _ _ _ _ _ _ _ _ _ _ b X   ",
"  Y X Z `  ...+.@.#.$.%.&.*.=.-.;.>.,.'.).!.~.  ",
"  {.].^./.(._.:.<.[.}.|.1.2.3.4.5.6.7.8.9.0.a.  ",
"  b.].c.d.e.f.g.h.i.j.k.l.c.m.n.o.p.q.r.s.t.u.  ",
"  a.1 v.R w.x.y.z.A.B.C.D.E.F.G.H.I.J.K.L.M.N.  ",
"  O.P._ _ _ _ _ _ _ _ _ _ _ _ _ _ _ _ _ _ Q.R.  ",
"  a.S.T.U.V.W.X.Y.Z.`. +.+V.++@+#+! $+%+&+*+a.  ",
"  =+-+;+>+,+'+++)+!+~+;+{+]+^+/+(+_+:+<+[+}+|+  ",
"  1+2+3+4+5+6+7+8+9+0+a+b+c+d+e+f+g+h+i+j+k+l+  ",
"  m+n+++o+p+q+j r+s+t+++u+v+S.w+x+y+z+A+B+C+D+  ",
"  E+F+G+H+I+J+K+L+M+N+G+O+P+!.Q+R+S+T+U+V+W+X+  ",
"  Y+Z+`+ @.@+@@@#@$@%@&@*@=@-@;@>@,@I '@)@!@~@  ",
"  {@]@^@../@(@_@:@<@[@}@]@|@1@2@3@+@4@5@6@7@8@  ",
"  9@0@a@b@c@d@e@f@e@g@h@i@j@k@l@f@d@m@j@n@l@o@  ",
"    p@q@r@s@n@t@t@u@v@w@x@y@z@y@s@A@s@g@B@C@    ",
"      D@E@F@G@H@I@4 J@4 K@F@L@H@F@M@F@9@N@      ",
"                                                "};
