/* XPM */
static char * midi_learn_xpm[] = {
"24 24 351 2",
"  	c None",
". 	c #AAAAAB",
"+ 	c #9E9E9F",
"@ 	c #A0A0A1",
"# 	c #A0A0A0",
"$ 	c #9F9FA0",
"% 	c #AAAAAA",
"& 	c #666667",
"* 	c #141515",
"= 	c #090909",
"- 	c #0B0B0B",
"; 	c #0F0F0F",
"> 	c #0A0A0A",
", 	c #0F0F10",
"' 	c #0D0D0E",
") 	c #0E0E0F",
"! 	c #111111",
"~ 	c #0A0A0B",
"{ 	c #0D0D0D",
"] 	c #121213",
"^ 	c #636364",
"/ 	c #A1A1A2",
"( 	c #121212",
"_ 	c #000000",
": 	c #3E4545",
"< 	c #9E9E9A",
"[ 	c #353B3B",
"} 	c #9D9F9C",
"| 	c #0B0B09",
"1 	c #767676",
"2 	c #838383",
"3 	c #1A1A1A",
"4 	c #BABBBB",
"5 	c #C0C0BF",
"6 	c #848580",
"7 	c #050504",
"8 	c #8B8B8B",
"9 	c #686868",
"0 	c #111012",
"a 	c #999999",
"b 	c #040404",
"c 	c #768080",
"d 	c #E2E3DE",
"e 	c #A5ACAA",
"f 	c #D1D4CD",
"g 	c #1E1E1B",
"h 	c #969696",
"i 	c #A7A7A7",
"j 	c #262626",
"k 	c #D5D5D5",
"l 	c #4A4C4C",
"m 	c #CDD0CC",
"n 	c #2D2D2A",
"o 	c #B0B0B0",
"p 	c #868686",
"q 	c #959596",
"r 	c #99999A",
"s 	c #030404",
"t 	c #889797",
"u 	c #AAB0AF",
"v 	c #D0D1CB",
"w 	c #C1C2BB",
"x 	c #252521",
"y 	c #DBDBDB",
"z 	c #909291",
"A 	c #CED0CA",
"B 	c #262620",
"C 	c #858585",
"D 	c #959595",
"E 	c #969697",
"F 	c #030304",
"G 	c #6F7676",
"H 	c #5C5C5C",
"I 	c #393939",
"J 	c #8B8B88",
"K 	c #1B1B19",
"L 	c #676767",
"M 	c #737373",
"N 	c #111212",
"O 	c #9B9C9C",
"P 	c #A1A1A0",
"Q 	c #4E4E49",
"R 	c #010101",
"S 	c #797979",
"T 	c #5B5B5B",
"U 	c #929293",
"V 	c #929292",
"W 	c #101010",
"X 	c #131313",
"Y 	c #080808",
"Z 	c #020303",
"` 	c #0E0E0E",
" .	c #0F0F0E",
"..	c #060606",
"+.	c #8D8E8E",
"@.	c #8E8E8F",
"#.	c #616161",
"$.	c #151515",
"%.	c #BABABA",
"&.	c #CBCBCB",
"*.	c #7E7E7E",
"=.	c #717676",
"-.	c #BEBEBB",
";.	c #1B1B18",
">.	c #B1B2B2",
",.	c #C4C4C4",
"'.	c #7C7C78",
").	c #A0A09F",
"!.	c #76766F",
"~.	c #4B4B4B",
"{.	c #8A8A8B",
"].	c #8B8B8C",
"^.	c #B4B4B4",
"/.	c #777777",
"(.	c #1C1C1C",
"_.	c #DCDCDC",
":.	c #C1C1C1",
"<.	c #535353",
"[.	c #0A0D0D",
"}.	c #BEC3C2",
"|.	c #CBCFCB",
"1.	c #6D6E62",
"2.	c #1B1B1B",
"3.	c #D7D7D7",
"4.	c #9EA0A0",
"5.	c #BEBEB9",
"6.	c #10100E",
"7.	c #C3C3C3",
"8.	c #D2D4D1",
"9.	c #CBCBC8",
"0.	c #878889",
"a.	c #89898A",
"b.	c #B5B5B5",
"c.	c #AFAFAF",
"d.	c #1E1E1E",
"e.	c #D9D9D9",
"f.	c #A6A6A6",
"g.	c #707070",
"h.	c #2F3636",
"i.	c #DEE2E1",
"j.	c #D4D5D5",
"k.	c #B8B8B3",
"l.	c #1E1E1D",
"m.	c #D8D8D8",
"n.	c #D1D4D3",
"o.	c #7E7E78",
"p.	c #C0C0C0",
"q.	c #686F6F",
"r.	c #EBEDED",
"s.	c #868788",
"t.	c #848484",
"u.	c #3A4747",
"v.	c #777774",
"w.	c #222424",
"x.	c #848680",
"y.	c #151514",
"z.	c #8A8A8A",
"A.	c #3C4141",
"B.	c #848480",
"C.	c #0B0B08",
"D.	c #777A7A",
"E.	c #3A3A3A",
"F.	c #858687",
"G.	c #868787",
"H.	c #060707",
"I.	c #070707",
"J.	c #858586",
"K.	c #232323",
"L.	c #151516",
"M.	c #141413",
"N.	c #262625",
"O.	c #1F1F1E",
"P.	c #273133",
"Q.	c #192324",
"R.	c #131414",
"S.	c #202020",
"T.	c #171717",
"U.	c #212222",
"V.	c #0F232D",
"W.	c #0B1C26",
"X.	c #232322",
"Y.	c #2E2E2D",
"Z.	c #333332",
"`.	c #919292",
" +	c #51514E",
".+	c #1F201F",
"++	c #40403E",
"@+	c #7A7974",
"#+	c #232423",
"$+	c #595956",
"%+	c #7398A0",
"&+	c #496E76",
"*+	c #3A3A38",
"=+	c #63625E",
"-+	c #202120",
";+	c #292927",
">+	c #666867",
",+	c #0C6692",
"'+	c #0C567C",
")+	c #70706C",
"!+	c #8B8A85",
"~+	c #8F8F89",
"{+	c #949595",
"]+	c #9D9E9D",
"^+	c #797976",
"/+	c #272827",
"(+	c #61615E",
"_+	c #B3B2AD",
":+	c #323332",
"<+	c #2A2A29",
"[+	c #83837F",
"}+	c #A2D1E0",
"|+	c #709AA6",
"1+	c #272727",
"2+	c #585856",
"3+	c #92918D",
"4+	c #292929",
"5+	c #3E3E3C",
"6+	c #979999",
"7+	c #1585CA",
"8+	c #1671AD",
"9+	c #A5A49F",
"0+	c #C8C7C0",
"a+	c #CFCEC7",
"b+	c #A4A5A3",
"c+	c #A1A2A2",
"d+	c #848482",
"e+	c #6A6A69",
"f+	c #C2C2BE",
"g+	c #343434",
"h+	c #8F8F8D",
"i+	c #A7D2E5",
"j+	c #7C9AA8",
"k+	c #636361",
"l+	c #9F9F9D",
"m+	c #444443",
"n+	c #A6A7A8",
"o+	c #177CCA",
"p+	c #1969AD",
"q+	c #B6B5B2",
"r+	c #D7D7D1",
"s+	c #DFDFDA",
"t+	c #AAABAA",
"u+	c #A5A6A6",
"v+	c #858584",
"w+	c #191919",
"x+	c #6C6C6B",
"y+	c #C9C8C5",
"z+	c #333333",
"A+	c #212121",
"B+	c #929290",
"C+	c #A5CDE4",
"D+	c #6F92A6",
"E+	c #646463",
"F+	c #A4A4A2",
"G+	c #434342",
"H+	c #ABACAE",
"I+	c #1770C6",
"J+	c #1960AA",
"K+	c #BABAB7",
"L+	c #DDDCD8",
"M+	c #E6E6E2",
"N+	c #AEAFAF",
"O+	c #AAABAB",
"P+	c #898987",
"Q+	c #3B3B3C",
"R+	c #717171",
"S+	c #CFCFCD",
"T+	c #474747",
"U+	c #3D3D3D",
"V+	c #9B9B9A",
"W+	c #A3C8E4",
"X+	c #5F87A5",
"Y+	c #3B3B3B",
"Z+	c #6B6B6A",
"`+	c #AAAAA8",
" @	c #3D3C3D",
".@	c #B1B2B3",
"+@	c #1961B3",
"@@	c #1C559B",
"#@	c #C1C1BF",
"$@	c #E2E1DE",
"%@	c #ECECE9",
"&@	c #B4B4B5",
"*@	c #B0B1B1",
"=@	c #90908F",
"-@	c #454544",
";@	c #959594",
">@	c #E6E6E4",
",@	c #4D4D4D",
"'@	c #494949",
")@	c #C7C7C6",
"!@	c #A4C6E6",
"~@	c #497CA5",
"{@	c #2E3C4A",
"]@	c #8F8F8E",
"^@	c #BBBBB9",
"/@	c #4B4B4A",
"(@	c #6F6E6E",
"_@	c #CCCDCC",
":@	c #3F537A",
"<@	c #495774",
"[@	c #E1E1DF",
"}@	c #E6E6E3",
"|@	c #F0F0EE",
"1@	c #B7B8B8",
"2@	c #BFC0C1",
"3@	c #DADAD9",
"4@	c #DFDFDE",
"5@	c #ECECEA",
"6@	c #F6F6F5",
"7@	c #DCDCDA",
"8@	c #E9E9E8",
"9@	c #F5F5F4",
"0@	c #9FC0E5",
"a@	c #52A0E1",
"b@	c #589CD7",
"c@	c #E3E4E5",
"d@	c #F4F4F3",
"e@	c #D9D9D7",
"f@	c #EEEEEC",
"g@	c #EBEBEA",
"h@	c #E9E9E7",
"i@	c #BCBEBF",
"j@	c #C7C7C7",
"k@	c #E1E1E0",
"l@	c #F3F3F3",
"m@	c #FAFAF9",
"n@	c #F9F9F9",
"o@	c #99BBE3",
"p@	c #3F96E0",
"q@	c #4B98DE",
"r@	c #EAECED",
"s@	c #E7E7E5",
"t@	c #F9F9F8",
"u@	c #EBEBE9",
"v@	c #F8F8F7",
"w@	c #E6E6E5",
"x@	c #CECECE",
"y@	c #BDBEBF",
"z@	c #BCBDBE",
"A@	c #C2C2C4",
"B@	c #BBBCBD",
"C@	c #C1C2C3",
"D@	c #A0ABBA",
"E@	c #8FA0B8",
"F@	c #91A1B8",
"G@	c #BBBDBF",
"H@	c #BBBBBC",
"I@	c #BCBDBD",
"J@	c #B5B6B6",
"                                                ",
"      . + @ @ # @ @ @ # @ @ @ @ @ @ @ $ %       ",
"    & * = - ; > , > ' ) > ! ! ~ > ; { > ] ^     ",
"  / ( _ _ : < [ } | 1 2 3 4 5 6 7 8 9 _ _ 0 +   ",
"  a b _ _ c d e f g h i j k l m n o p _ _ b q   ",
"  r s _ _ t u v w x h i j y z A B o C _ _ b D   ",
"  E F _ _ G H I J K L M N O P Q R S T _ _ b U   ",
"  V { b _ _ W X Y _ Z ` _ _ -  .R _ - R - ..+.  ",
"  @.D #._ $.%.&.*._ =.-.;.( >.,.'...).!.a ~.{.  ",
"  ].^./._ (._.:.<.[.}.|.1.2.3.4.5.6.7.8.9.H 0.  ",
"  a.b.c./.d.e.f.g.h.i.j.k.l.m.n.o.= p.q.r.H s.  ",
"  0./.i t.( D i S u.v.w.x.y.z.A.B.C.*.j D.E.F.  ",
"  G.H._ _ _ _ _ _ _ _ _ _ _ _ _ _ _ _ _ _ I.J.  ",
"  0.K.L.M.N.2.d.O.P.Q.R.$.N.S.T.U.V.W.X.Y.Z.0.  ",
"  `. +.+++@+#+S.$+%+&+.+*+=+-+;+>+,+'+)+!+~+{+  ",
"  ]+^+/+(+_+:+<+[+}+|+1+2+3+4+5+6+7+8+9+0+a+b+  ",
"  c+d+S.e+f+g+j h+i+j+S.k+l+K.m+n+o+p+q+r+s+t+  ",
"  u+v+w+x+y+z+A+B+C+D+w+E+F+(.G+H+I+J+K+L+M+N+  ",
"  O+P+Q+R+S+T+U+V+W+X+Y+Z+`+ @~..@+@@@#@$@%@&@  ",
"  *@=@-@;@>@,@'@)@!@~@{@]@^@/@(@_@:@<@[@}@|@1@  ",
"  2@3@4@5@6@7@8@9@0@a@b@c@d@e@f@9@7@g@d@h@f@i@  ",
"    j@k@l@m@h@n@n@o@p@q@r@m@s@t@m@u@m@v@w@x@    ",
"      y@z@A@B@C@C@D@E@F@G@A@H@C@A@I@A@2@J@      ",
"                                                "};
