/* XPM */
static char * save_xpm[] = {
"24 24 203 2",
"  	c None",
". 	c #DCDCDC",
"+ 	c #DEDEDE",
"@ 	c #D0D0D0",
"# 	c #E5E5E5",
"$ 	c #F6F6F6",
"% 	c #F7F7F7",
"& 	c #F5F5F5",
"* 	c #EAEBEB",
"= 	c #F5F5F6",
"- 	c #E0E0E1",
"; 	c #D2D3D4",
"> 	c #D3D3D4",
", 	c #BFD2F0",
"' 	c #CBDBF4",
") 	c #B7D3F9",
"! 	c #C8DFF9",
"~ 	c #CEE2FA",
"{ 	c #CDE1F9",
"] 	c #B6C7DC",
"^ 	c #A8B8CB",
"/ 	c #AABACE",
"( 	c #AABBCF",
"_ 	c #A8B9CC",
": 	c #B5C6DB",
"< 	c #CDE0F8",
"[ 	c #ABCAF7",
"} 	c #C4DCF9",
"| 	c #CBE0FA",
"1 	c #CADEF8",
"2 	c #98A6BB",
"3 	c #7A8798",
"4 	c #A2B2C8",
"5 	c #AABBD2",
"6 	c #ABBCD3",
"7 	c #ABBCD2",
"8 	c #ABBCD4",
"9 	c #A5B6CD",
"0 	c #8795A8",
"a 	c #909EB1",
"b 	c #A4C5F6",
"c 	c #BFD8F8",
"d 	c #C6DCF9",
"e 	c #C7DCF9",
"f 	c #B4C8E2",
"g 	c #5B6573",
"h 	c #758395",
"i 	c #768395",
"j 	c #788699",
"k 	c #AABED7",
"l 	c #A0B2CA",
"m 	c #768496",
"n 	c #768396",
"o 	c #616C7C",
"p 	c #AFC2DC",
"q 	c #9DC0F6",
"r 	c #BAD3F8",
"s 	c #C2D8F8",
"t 	c #9BADC7",
"u 	c #4A5361",
"v 	c #545D6D",
"w 	c #555F6E",
"x 	c #545E6E",
"y 	c #596373",
"z 	c #C0D6F5",
"A 	c #AEC2DE",
"B 	c #566070",
"C 	c #4D5664",
"D 	c #9AACC6",
"E 	c #BAD3F7",
"F 	c #B3CEF6",
"G 	c #BDD4F7",
"H 	c #94A7C2",
"I 	c #3C4451",
"J 	c #505A6A",
"K 	c #424B59",
"L 	c #414956",
"M 	c #454E5C",
"N 	c #BAD1F3",
"O 	c #A7BCDB",
"P 	c #434C5A",
"Q 	c #404856",
"R 	c #464F5D",
"S 	c #444C5B",
"T 	c #3E4653",
"U 	c #ABC8F5",
"V 	c #B7CFF5",
"W 	c #8EA2C0",
"X 	c #343A47",
"Y 	c #7687A1",
"Z 	c #879AB7",
"` 	c #38404E",
" .	c #3B4351",
"..	c #B4CCF1",
"+.	c #A1B7D9",
"@.	c #38404F",
"#.	c #3E4657",
"$.	c #97ACCC",
"%.	c #465060",
"&.	c #343B48",
"*.	c #A3C1F4",
"=.	c #B0C9F3",
"-.	c #B1CAF4",
";.	c #899DBF",
">.	c #313846",
",.	c #7485A1",
"'.	c #AFC8F1",
").	c #8497B8",
"!.	c #3A4251",
"~.	c #AEC7F0",
"{.	c #9CB2D7",
"].	c #3E4757",
"^.	c #96ACD1",
"/.	c #AFC7F1",
"(.	c #424C5D",
"_.	c #8A9DBF",
":.	c #9ABAF2",
"<.	c #AAC4F2",
"[.	c #8499BE",
"}.	c #2F3645",
"|.	c #485368",
"1.	c #9BB3DD",
"2.	c #A9C3F1",
"3.	c #7F93B7",
"4.	c #A8C2F0",
"5.	c #98B0D9",
"6.	c #93AAD2",
"7.	c #91A7CE",
"8.	c #353D4E",
"9.	c #303746",
"0.	c #8599BE",
"a.	c #91B2F0",
"b.	c #A3BEF0",
"c.	c #A4BFF0",
"d.	c #7F94BC",
"e.	c #2D3444",
"f.	c #2E3445",
"g.	c #47536A",
"h.	c #96AFDC",
"i.	c #A3BEEF",
"j.	c #8DA3CE",
"k.	c #383F54",
"l.	c #2E3546",
"m.	c #7F95BC",
"n.	c #89AAEF",
"o.	c #9DB8EE",
"p.	c #9DB9EF",
"q.	c #7A90BA",
"r.	c #2B3344",
"s.	c #2C3245",
"t.	c #2B3144",
"u.	c #46526D",
"v.	c #91AADC",
"w.	c #869ECC",
"x.	c #363F53",
"y.	c #2D3246",
"z.	c #2C3345",
"A.	c #7A90BB",
"B.	c #81A2ED",
"C.	c #97B2ED",
"D.	c #97B3ED",
"E.	c #798EBD",
"F.	c #2A3244",
"G.	c #2A3045",
"H.	c #2A3044",
"I.	c #293044",
"J.	c #43506B",
"K.	c #8BA5DA",
"L.	c #839BCC",
"M.	c #323C50",
"N.	c #2A3144",
"O.	c #2B3045",
"P.	c #2A3145",
"Q.	c #768CBA",
"R.	c #799BEC",
"S.	c #91AEEB",
"T.	c #92AEEB",
"U.	c #87A2DC",
"V.	c #333D56",
"W.	c #282F44",
"X.	c #292F44",
"Y.	c #3D4864",
"Z.	c #303951",
"`.	c #323C54",
" +	c #86A1DA",
".+	c #7194EA",
"++	c #8CA8EA",
"@+	c #8DA9EA",
"#+	c #7189C0",
"$+	c #343F5A",
"%+	c #293147",
"&+	c #293148",
"*+	c #283147",
"=+	c #36415D",
"-+	c #768EC7",
";+	c #6B8BDE",
">+	c #88A5E7",
",+	c #87A5E7",
"'+	c #829EDE",
")+	c #7892CE",
"!+	c #7791CC",
"~+	c #7892CD",
"{+	c #84A0E1",
"                                                ",
"                                                ",
"                                                ",
"      . + + + + + @                             ",
"    # $ % % % % % &                             ",
"    * = = = = = = = - ; ; ; ; ; ; ; ; ; ; >     ",
"  , ' ' ' ' ' ' ' ' ' ' ' ' ' ' ' ' ' ' ' ' ,   ",
") ! ~ ~ ~ ~ { ] ^ / ( ( ( ( ( _ : < ~ ~ ~ ~ ! ) ",
"[ } | | | 1 2 3 4 5 6 6 7 6 8 9 0 a 1 | | | } [ ",
"b c d e e f g h i h j k l m h h n o p e e d c b ",
"q r s s s t u v w x y z A B x x x C D s s s E q ",
"  F G G G H I J K L M N O P Q R S T H G G G F   ",
"  U V V V W X Y Z `  ...+.@.#.$.%.&.W V V V U   ",
"  *.=.-.-.;.>.,.'.).!.~.{.].^./.(.>._.-.-.=.*.  ",
"  :.<.<.<.[.}.|.1.2.3.4.5.6.<.7.8.9.0.<.<.<.:.  ",
"  a.b.c.c.d.e.f.g.h.i.b.b.b.j.k.f.l.m.c.c.b.a.  ",
"  n.o.p.p.q.r.s.t.u.v.o.o.w.x.y.s.z.A.p.p.o.n.  ",
"  B.C.D.D.E.F.G.H.I.J.K.L.M.N.O.O.P.Q.D.D.C.B.  ",
"  R.S.T.T.U.V.W.W.W.X.Y.Z.W.W.X.X.`. +T.T.S.R.  ",
"  .+++@+@+++#+$+%+%+%+&+*+*+%+%+=+-+++@+@+++.+  ",
"  ;+>+>+>+>+,+'+)+!+!+!+!+!+!+~+{+>+>+>+>+>+;+  ",
"                                                ",
"                                                ",
"                                                "};
