/* XPM */
static char * save_xpm[] = {
"24 24 172 2",
"  	c None",
". 	c #383838",
"+ 	c #F6F6F6",
"@ 	c #F7F7F7",
"# 	c #CBDBF4",
"$ 	c #C8DFF9",
"% 	c #CEE2FA",
"& 	c #CDE1F9",
"* 	c #B6C7DC",
"= 	c #A8B8CB",
"- 	c #AABACE",
"; 	c #AABBCF",
"> 	c #A8B9CC",
", 	c #B5C6DB",
"' 	c #CDE0F8",
") 	c #C4DCF9",
"! 	c #CBE0FA",
"~ 	c #CADEF8",
"{ 	c #98A6BB",
"] 	c #7A8798",
"^ 	c #A2B2C8",
"/ 	c #AABBD2",
"( 	c #ABBCD3",
"_ 	c #ABBCD2",
": 	c #ABBCD4",
"< 	c #A5B6CD",
"[ 	c #8795A8",
"} 	c #909EB1",
"| 	c #BFD8F8",
"1 	c #C6DCF9",
"2 	c #C7DCF9",
"3 	c #B4C8E2",
"4 	c #5B6573",
"5 	c #758395",
"6 	c #768395",
"7 	c #788699",
"8 	c #AABED7",
"9 	c #A0B2CA",
"0 	c #768496",
"a 	c #768396",
"b 	c #616C7C",
"c 	c #AFC2DC",
"d 	c #BAD3F8",
"e 	c #C2D8F8",
"f 	c #9BADC7",
"g 	c #4A5361",
"h 	c #545D6D",
"i 	c #555F6E",
"j 	c #545E6E",
"k 	c #596373",
"l 	c #C0D6F5",
"m 	c #AEC2DE",
"n 	c #566070",
"o 	c #4D5664",
"p 	c #9AACC6",
"q 	c #BAD3F7",
"r 	c #BDD4F7",
"s 	c #94A7C2",
"t 	c #3C4451",
"u 	c #505A6A",
"v 	c #424B59",
"w 	c #414956",
"x 	c #454E5C",
"y 	c #BAD1F3",
"z 	c #A7BCDB",
"A 	c #434C5A",
"B 	c #404856",
"C 	c #464F5D",
"D 	c #444C5B",
"E 	c #3E4653",
"F 	c #B7CFF5",
"G 	c #8EA2C0",
"H 	c #343A47",
"I 	c #7687A1",
"J 	c #879AB7",
"K 	c #38404E",
"L 	c #3B4351",
"M 	c #B4CCF1",
"N 	c #A1B7D9",
"O 	c #38404F",
"P 	c #3E4657",
"Q 	c #97ACCC",
"R 	c #465060",
"S 	c #343B48",
"T 	c #B0C9F3",
"U 	c #B1CAF4",
"V 	c #899DBF",
"W 	c #313846",
"X 	c #7485A1",
"Y 	c #AFC8F1",
"Z 	c #8497B8",
"` 	c #3A4251",
" .	c #AEC7F0",
"..	c #9CB2D7",
"+.	c #3E4757",
"@.	c #96ACD1",
"#.	c #AFC7F1",
"$.	c #424C5D",
"%.	c #8A9DBF",
"&.	c #AAC4F2",
"*.	c #8499BE",
"=.	c #2F3645",
"-.	c #485368",
";.	c #9BB3DD",
">.	c #A9C3F1",
",.	c #7F93B7",
"'.	c #A8C2F0",
").	c #98B0D9",
"!.	c #93AAD2",
"~.	c #91A7CE",
"{.	c #353D4E",
"].	c #303746",
"^.	c #8599BE",
"/.	c #A3BEF0",
"(.	c #A4BFF0",
"_.	c #7F94BC",
":.	c #2D3444",
"<.	c #2E3445",
"[.	c #47536A",
"}.	c #96AFDC",
"|.	c #A3BEEF",
"1.	c #8DA3CE",
"2.	c #383F54",
"3.	c #2E3546",
"4.	c #7F95BC",
"5.	c #9DB8EE",
"6.	c #9DB9EF",
"7.	c #7A90BA",
"8.	c #2B3344",
"9.	c #2C3245",
"0.	c #2B3144",
"a.	c #46526D",
"b.	c #91AADC",
"c.	c #869ECC",
"d.	c #363F53",
"e.	c #2D3246",
"f.	c #2C3345",
"g.	c #7A90BB",
"h.	c #97B2ED",
"i.	c #97B3ED",
"j.	c #798EBD",
"k.	c #2A3244",
"l.	c #2A3045",
"m.	c #2A3044",
"n.	c #293044",
"o.	c #43506B",
"p.	c #8BA5DA",
"q.	c #839BCC",
"r.	c #323C50",
"s.	c #2A3144",
"t.	c #2B3045",
"u.	c #2A3145",
"v.	c #768CBA",
"w.	c #91AEEB",
"x.	c #92AEEB",
"y.	c #87A2DC",
"z.	c #333D56",
"A.	c #282F44",
"B.	c #292F44",
"C.	c #3D4864",
"D.	c #303951",
"E.	c #323C54",
"F.	c #86A1DA",
"G.	c #8CA8EA",
"H.	c #8DA9EA",
"I.	c #7189C0",
"J.	c #343F5A",
"K.	c #293147",
"L.	c #293148",
"M.	c #283147",
"N.	c #36415D",
"O.	c #768EC7",
"                                                ",
"                                                ",
"                                                ",
"      . . . . . . .                             ",
"    . + @ @ @ @ @ .                             ",
"    . . . . . . . . . . . . . . . . . . . .     ",
"  . # # # # # # # # # # # # # # # # # # # # .   ",
". $ % % % % & * = - ; ; ; ; ; > , ' % % % % $ . ",
". ) ! ! ! ~ { ] ^ / ( ( _ ( : < [ } ~ ! ! ! ) . ",
". | 1 2 2 3 4 5 6 5 7 8 9 0 5 5 a b c 2 2 1 | . ",
". d e e e f g h i j k l m n j j j o p e e e q . ",
". . r r r s t u v w x y z A B C D E s r r r . . ",
"  . F F F G H I J K L M N O P Q R S G F F F .   ",
"  . T U U V W X Y Z `  ...+.@.#.$.W %.U U T .   ",
"  . &.&.&.*.=.-.;.>.,.'.).!.&.~.{.].^.&.&.&..   ",
"  . /.(.(._.:.<.[.}.|./././.1.2.<.3.4.(.(./..   ",
"  . 5.6.6.7.8.9.0.a.b.5.5.c.d.e.9.f.g.6.6.5..   ",
"  . h.i.i.j.k.l.m.n.o.p.q.r.s.t.t.u.v.i.i.h..   ",
"  . w.x.x.y.z.A.A.A.B.C.D.A.A.B.B.E.F.x.x.w..   ",
"  . G.H.H.G.I.J.K.K.K.L.M.M.K.K.N.O.G.H.H.G..   ",
"  . . . . . . . . . . . . . . . . . . . . . .   ",
"                                                ",
"                                                ",
"                                                "};
